<?xml version="1.0" encoding="UTF-8"?>
<svg width="267px" height="282px" viewBox="0 0 267 282" version="1.1" xmlns="http://www.w3.org/2000/svg" xmlns:xlink="http://www.w3.org/1999/xlink">
    <!-- Generator: Sketch 54 (76480) - https://sketchapp.com -->
    <title>编组 2</title>
    <desc>Created with Sketch.</desc>
    <defs>
        <path d="M0.142687927,30.7429295 C0.142687927,47.642511 13.8387472,61.3427313 30.7333941,61.3427313 L30.7333941,61.3427313 C47.628041,61.3427313 61.3241002,47.642511 61.3241002,30.7429295 L61.3241002,30.7429295 C61.3241002,13.8427533 47.628041,0.142929515 30.7333941,0.142929515 L30.7333941,0.142929515 C13.8387472,0.142929515 0.142687927,13.8427533 0.142687927,30.7429295" id="path-1"></path>
        <linearGradient x1="3.88701732e-07%" y1="49.9998337%" x2="100.000001%" y2="49.9998337%" id="linearGradient-3">
            <stop stop-color="#00AFFF" offset="0%"></stop>
            <stop stop-color="#267EF4" offset="100%"></stop>
        </linearGradient>
        <path d="M76.4965831,0 C46.8398884,0 20.5415125,14.3587665 4.15122779,36.4993612 L4.15122779,36.4993612 L4.2390205,36.5522907 C1.67123235,39.8918062 0.128022779,44.0611454 0.128022779,48.6 L0.128022779,48.6 C0.128022779,59.5351982 8.98993394,68.4 19.9218109,68.4 L19.9218109,68.4 C28.1713531,68.4 35.2365854,63.3485022 38.2098451,56.1714978 L38.2098451,56.1714978 C50.3226629,33.4772247 74.1745353,18 101.688929,18 L101.688929,18 C118.838829,18 134.569182,24.022467 146.934478,34.0376432 L146.934478,34.0376432 C130.45105,13.3063216 105.034763,0 76.4965831,0 Z" id="path-4"></path>
        <linearGradient x1="-9.01344795e-05%" y1="50.0000057%" x2="99.9999899%" y2="50.0000057%" id="linearGradient-6">
            <stop stop-color="#00AFFF" offset="0%"></stop>
            <stop stop-color="#267EF4" offset="100%"></stop>
        </linearGradient>
        <path d="M0.126833713,19.8079295 C0.126833713,25.9840308 2.9562164,31.4970264 7.38568565,35.1281498 L7.38568565,35.1281498 C23.8865535,54.3861674 48.3589203,66.6079295 75.7038724,66.6079295 L75.7038724,66.6079295 C104.242052,66.6079295 129.658339,53.3018062 146.141768,32.5702863 L146.141768,32.5702863 C133.776472,42.585859 118.046118,48.6079295 100.896219,48.6079295 L100.896219,48.6079295 C73.5046948,48.6079295 49.6944396,33.2986123 37.530492,10.7710573 L37.530492,10.7710573 L37.5211777,10.7762115 C34.2377699,4.38720264 27.5966378,0.00792951542 19.92082,0.00792951542 L19.92082,0.00792951542 C8.98874487,0.00792951542 0.126833713,8.8723348 0.126833713,19.8079295" id="path-7"></path>
        <linearGradient x1="-8.1434552e-08%" y1="50.0000013%" x2="99.9999867%" y2="50.0000013%" id="linearGradient-9">
            <stop stop-color="#00AFFF" offset="0%"></stop>
            <stop stop-color="#267EF4" offset="100%"></stop>
        </linearGradient>
        <path d="M0,35.2863436 C0,48.4693612 2.85692938,60.9775771 7.94831207,72.2602863 L7.94831207,72.2602863 C10.7624351,60.3551101 21.4281595,51.4863436 34.1896128,51.4863436 L34.1896128,51.4863436 C38.3420296,51.4863436 42.2528679,52.4602863 45.7647745,54.1371806 L45.7647745,54.1371806 C44.1341686,48.1196696 43.1868793,41.8200661 43.1868793,35.2863436 L43.1868793,35.2863436 C43.1868793,29.3294934 43.9898952,23.5732599 45.3531595,18.0372687 L45.3531595,18.0372687 C41.7463257,19.8344934 37.7042938,20.8863436 33.3978929,20.8863436 L33.3978929,20.8863436 C20.6261344,20.8863436 9.95149203,12.0023128 7.14866515,0.0816740088 L7.14866515,0.0816740088 C2.54896128,10.8957489 0,22.7927974 0,35.2863436" id="path-10"></path>
        <linearGradient x1="0%" y1="49.9999732%" x2="100.00007%" y2="49.9999732%" id="linearGradient-12">
            <stop stop-color="#00AFFF" offset="0%"></stop>
            <stop stop-color="#267EF4" offset="100%"></stop>
        </linearGradient>
        <path d="M0.181332574,18.2557269 C1.69422096,18.1135903 3.22217084,18.0237885 4.77211845,18.0237885 L4.77211845,18.0237885 C24.14359,18.0237885 40.817467,29.3923348 48.6203166,45.7981057 L48.6203166,45.7981057 L48.872795,45.6928414 C51.9164077,52.7110573 58.8980091,57.6237885 67.0332027,57.6237885 L67.0332027,57.6237885 C77.9654761,57.6237885 86.8273872,48.7589868 86.8273872,37.8237885 L86.8273872,37.8237885 C86.8273872,33.6580176 85.5348724,29.797533 83.3380729,26.6082819 L83.3380729,26.6082819 C74.8388269,10.7926652 58.1697062,0.0237885463 38.9617312,0.0237885463 L38.9617312,0.0237885463 C23.3623736,0.0237885463 9.4235467,7.11951542 0.181332574,18.2557269" id="path-13"></path>
        <linearGradient x1="-0.000123692288%" y1="50.0000084%" x2="99.9999716%" y2="50.0000084%" id="linearGradient-15">
            <stop stop-color="#00AFFF" offset="0%"></stop>
            <stop stop-color="#267EF4" offset="100%"></stop>
        </linearGradient>
    </defs>
    <g id="Welcome" stroke="none" stroke-width="1" fill="none" fill-rule="evenodd">
        <g id="welcome1.1" transform="translate(-603.000000, -210.000000)">
            <g id="编组-2" transform="translate(603.940000, 210.000000)">
                <path d="M20.8,281.48 C16.6399792,281.48 12.6533524,280.81334 8.84,279.48 C5.0266476,278.14666 2.0800104,276.386678 2.84217094e-12,274.2 L2.32,269.64 C4.3466768,271.666677 7.0399832,273.30666 10.4,274.56 C13.7600168,275.81334 17.2266488,276.44 20.8,276.44 C25.8133584,276.44 29.5733208,275.520009 32.08,273.68 C34.5866792,271.839991 35.84,269.453348 35.84,266.52 C35.84,264.279989 35.1600068,262.49334 33.8,261.16 C32.4399932,259.82666 30.7733432,258.800004 28.8,258.08 C26.8266568,257.359996 24.0800176,256.573338 20.56,255.72 C16.3466456,254.653328 12.9866792,253.626672 10.48,252.64 C7.9733208,251.653328 5.8266756,250.146677 4.04,248.12 C2.2533244,246.093323 1.36,243.346684 1.36,239.88 C1.36,237.053319 2.1066592,234.480012 3.6,232.16 C5.0933408,229.839988 7.3866512,227.986674 10.48,226.6 C13.5733488,225.213326 17.4133104,224.52 22,224.52 C25.200016,224.52 28.333318,224.959996 31.4,225.84 C34.466682,226.720004 37.1199888,227.933326 39.36,229.48 L37.36,234.2 C35.0133216,232.653326 32.50668,231.493337 29.84,230.72 C27.17332,229.946663 24.5600128,229.56 22,229.56 C17.0933088,229.56 13.4000124,230.506657 10.92,232.4 C8.4399876,234.293343 7.2,236.733318 7.2,239.72 C7.2,241.960011 7.8799932,243.759993 9.24,245.12 C10.6000068,246.480007 12.3066564,247.519996 14.36,248.24 C16.4133436,248.960004 19.173316,249.746662 22.64,250.6 C26.7466872,251.613338 30.066654,252.613328 32.6,253.6 C35.133346,254.586672 37.2799912,256.07999 39.04,258.08 C40.8000088,260.08001 41.68,262.78665 41.68,266.2 C41.68,269.026681 40.9200076,271.599988 39.4,273.92 C37.8799924,276.240012 35.5466824,278.079993 32.4,279.44 C29.2533176,280.800007 25.3866896,281.48 20.8,281.48 Z M90,261.72 L54.8,261.72 C55.1200016,266.093355 56.7999848,269.626653 59.84,272.32 C62.8800152,275.013347 66.7199768,276.36 71.36,276.36 C73.9733464,276.36 76.3733224,275.893338 78.56,274.96 C80.7466776,274.026662 82.639992,272.653342 84.24,270.84 L87.44,274.52 C85.573324,276.760011 83.240014,278.466661 80.44,279.64 C77.639986,280.813339 74.5600168,281.4 71.2,281.4 C66.8799784,281.4 63.05335,280.480009 59.72,278.64 C56.38665,276.799991 53.786676,274.25335 51.92,271 C50.053324,267.74665 49.12,264.066687 49.12,259.96 C49.12,255.853313 50.0133244,252.17335 51.8,248.92 C53.5866756,245.66665 56.0399844,243.133342 59.16,241.32 C62.2800156,239.506658 65.7866472,238.6 69.68,238.6 C73.5733528,238.6 77.0666512,239.506658 80.16,241.32 C83.2533488,243.133342 85.6799912,245.653317 87.44,248.88 C89.2000088,252.106683 90.08,255.799979 90.08,259.96 L90,261.72 Z M69.68,243.48 C65.6266464,243.48 62.2266804,244.77332 59.48,247.36 C56.7333196,249.94668 55.1733352,253.319979 54.8,257.48 L84.64,257.48 C84.2666648,253.319979 82.7066804,249.94668 79.96,247.36 C77.2133196,244.77332 73.7866872,243.48 69.68,243.48 Z M138.32,261.72 L103.12,261.72 C103.440002,266.093355 105.119985,269.626653 108.16,272.32 C111.200015,275.013347 115.039977,276.36 119.68,276.36 C122.293346,276.36 124.693322,275.893338 126.88,274.96 C129.066678,274.026662 130.959992,272.653342 132.56,270.84 L135.76,274.52 C133.893324,276.760011 131.560014,278.466661 128.76,279.64 C125.959986,280.813339 122.880017,281.4 119.52,281.4 C115.199978,281.4 111.37335,280.480009 108.04,278.64 C104.70665,276.799991 102.106676,274.25335 100.24,271 C98.373324,267.74665 97.44,264.066687 97.44,259.96 C97.44,255.853313 98.3333244,252.17335 100.12,248.92 C101.906676,245.66665 104.359984,243.133342 107.48,241.32 C110.600016,239.506658 114.106647,238.6 118,238.6 C121.893353,238.6 125.386651,239.506658 128.48,241.32 C131.573349,243.133342 133.999991,245.653317 135.76,248.88 C137.520009,252.106683 138.4,255.799979 138.4,259.96 L138.32,261.72 Z M118,243.48 C113.946646,243.48 110.54668,244.77332 107.8,247.36 C105.05332,249.94668 103.493335,253.319979 103.12,257.48 L132.96,257.48 C132.586665,253.319979 131.02668,249.94668 128.28,247.36 C125.53332,244.77332 122.106687,243.48 118,243.48 Z M165.6,259.88 L155.68,269 L155.68,281 L150,281 L150,221.64 L155.68,221.64 L155.68,261.88 L180.8,238.92 L187.84,238.92 L169.84,256.12 L189.52,281 L182.56,281 L165.6,259.88 Z M233.04,261.72 L197.84,261.72 C198.160002,266.093355 199.839985,269.626653 202.88,272.32 C205.920015,275.013347 209.759977,276.36 214.4,276.36 C217.013346,276.36 219.413322,275.893338 221.6,274.96 C223.786678,274.026662 225.679992,272.653342 227.28,270.84 L230.48,274.52 C228.613324,276.760011 226.280014,278.466661 223.48,279.64 C220.679986,280.813339 217.600017,281.4 214.24,281.4 C209.919978,281.4 206.09335,280.480009 202.76,278.64 C199.42665,276.799991 196.826676,274.25335 194.96,271 C193.093324,267.74665 192.16,264.066687 192.16,259.96 C192.16,255.853313 193.053324,252.17335 194.84,248.92 C196.626676,245.66665 199.079984,243.133342 202.2,241.32 C205.320016,239.506658 208.826647,238.6 212.72,238.6 C216.613353,238.6 220.106651,239.506658 223.2,241.32 C226.293349,243.133342 228.719991,245.653317 230.48,248.88 C232.240009,252.106683 233.12,255.799979 233.12,259.96 L233.04,261.72 Z M212.72,243.48 C208.666646,243.48 205.26668,244.77332 202.52,247.36 C199.77332,249.94668 198.213335,253.319979 197.84,257.48 L227.68,257.48 C227.306665,253.319979 225.74668,249.94668 223,247.36 C220.25332,244.77332 216.826687,243.48 212.72,243.48 Z M250.16,247.16 C251.49334,244.333319 253.479987,242.200007 256.12,240.76 C258.760013,239.319993 262.026647,238.6 265.92,238.6 L265.92,244.12 L264.56,244.04 C260.133311,244.04 256.666679,245.399986 254.16,248.12 C251.653321,250.840014 250.4,254.653309 250.4,259.56 L250.4,281 L244.72,281 L244.72,238.92 L250.16,238.92 L250.16,247.16 Z" id="Seeker" fill="#A2A2A3" fill-rule="nonzero"></path>
                <g id="编组复制-3" transform="translate(39.060000, 0.000000)">
                    <g id="编组" transform="translate(61.038724, 61.057269)">
                        <mask id="mask-2" fill="white">
                            <use xlink:href="#path-1"></use>
                        </mask>
                        <g id="Clip-2"></g>
                        <path d="M0.142687927,30.7429295 C0.142687927,47.642511 13.8387472,61.3427313 30.7333941,61.3427313 L30.7333941,61.3427313 C47.628041,61.3427313 61.3241002,47.642511 61.3241002,30.7429295 L61.3241002,30.7429295 C61.3241002,13.8427533 47.628041,0.142929515 30.7333941,0.142929515 L30.7333941,0.142929515 C13.8387472,0.142929515 0.142687927,13.8427533 0.142687927,30.7429295" id="Fill-1" fill="url(#linearGradient-3)" mask="url(#mask-2)"></path>
                    </g>
                    <g id="编组" transform="translate(13.476082, 0.000000)">
                        <mask id="mask-5" fill="white">
                            <use xlink:href="#path-4"></use>
                        </mask>
                        <g id="Clip-4"></g>
                        <path d="M76.4965831,0 C46.8398884,0 20.5415125,14.3587665 4.15122779,36.4993612 L4.15122779,36.4993612 L4.2390205,36.5522907 C1.67123235,39.8918062 0.128022779,44.0611454 0.128022779,48.6 L0.128022779,48.6 C0.128022779,59.5351982 8.98993394,68.4 19.9218109,68.4 L19.9218109,68.4 C28.1713531,68.4 35.2365854,63.3485022 38.2098451,56.1714978 L38.2098451,56.1714978 C50.3226629,33.4772247 74.1745353,18 101.688929,18 L101.688929,18 C118.838829,18 134.569182,24.022467 146.934478,34.0376432 L146.934478,34.0376432 C130.45105,13.3063216 105.034763,0 76.4965831,0 Z" id="Fill-3" fill="url(#linearGradient-6)" mask="url(#mask-5)"></path>
                    </g>
                    <g id="编组" transform="translate(14.268793, 113.392070)">
                        <mask id="mask-8" fill="white">
                            <use xlink:href="#path-7"></use>
                        </mask>
                        <g id="Clip-6"></g>
                        <path d="M0.126833713,19.8079295 C0.126833713,25.9840308 2.9562164,31.4970264 7.38568565,35.1281498 L7.38568565,35.1281498 C23.8865535,54.3861674 48.3589203,66.6079295 75.7038724,66.6079295 L75.7038724,66.6079295 C104.242052,66.6079295 129.658339,53.3018062 146.141768,32.5702863 L146.141768,32.5702863 C133.776472,42.585859 118.046118,48.6079295 100.896219,48.6079295 L100.896219,48.6079295 C73.5046948,48.6079295 49.6944396,33.2986123 37.530492,10.7710573 L37.530492,10.7710573 L37.5211777,10.7762115 C34.2377699,4.38720264 27.5966378,0.00792951542 19.92082,0.00792951542 L19.92082,0.00792951542 C8.98874487,0.00792951542 0.126833713,8.8723348 0.126833713,19.8079295" id="Fill-5" fill="url(#linearGradient-9)" mask="url(#mask-8)"></path>
                    </g>
                    <g id="编组" transform="translate(0.000000, 54.713656)">
                        <mask id="mask-11" fill="white">
                            <use xlink:href="#path-10"></use>
                        </mask>
                        <g id="Clip-8"></g>
                        <path d="M0,35.2863436 C0,48.4693612 2.85692938,60.9775771 7.94831207,72.2602863 L7.94831207,72.2602863 C10.7624351,60.3551101 21.4281595,51.4863436 34.1896128,51.4863436 L34.1896128,51.4863436 C38.3420296,51.4863436 42.2528679,52.4602863 45.7647745,54.1371806 L45.7647745,54.1371806 C44.1341686,48.1196696 43.1868793,41.8200661 43.1868793,35.2863436 L43.1868793,35.2863436 C43.1868793,29.3294934 43.9898952,23.5732599 45.3531595,18.0372687 L45.3531595,18.0372687 C41.7463257,19.8344934 37.7042938,20.8863436 33.3978929,20.8863436 L33.3978929,20.8863436 C20.6261344,20.8863436 9.95149203,12.0023128 7.14866515,0.0816740088 L7.14866515,0.0816740088 C2.54896128,10.8957489 0,22.7927974 0,35.2863436" id="Fill-7" fill="url(#linearGradient-12)" mask="url(#mask-11)"></path>
                    </g>
                    <g id="编组" transform="translate(87.000000, 25.176211)">
                        <mask id="mask-14" fill="white">
                            <use xlink:href="#path-13"></use>
                        </mask>
                        <g id="Clip-10"></g>
                        <path d="M0.181332574,18.2557269 C1.69422096,18.1135903 3.22217084,18.0237885 4.77211845,18.0237885 L4.77211845,18.0237885 C24.14359,18.0237885 40.817467,29.3923348 48.6203166,45.7981057 L48.6203166,45.7981057 L48.872795,45.6928414 C51.9164077,52.7110573 58.8980091,57.6237885 67.0332027,57.6237885 L67.0332027,57.6237885 C77.9654761,57.6237885 86.8273872,48.7589868 86.8273872,37.8237885 L86.8273872,37.8237885 C86.8273872,33.6580176 85.5348724,29.797533 83.3380729,26.6082819 L83.3380729,26.6082819 C74.8388269,10.7926652 58.1697062,0.0237885463 38.9617312,0.0237885463 L38.9617312,0.0237885463 C23.3623736,0.0237885463 9.4235467,7.11951542 0.181332574,18.2557269" id="Fill-9" fill="url(#linearGradient-15)" mask="url(#mask-14)"></path>
                    </g>
                </g>
            </g>
        </g>
    </g>
</svg>