<?xml version="1.0" encoding="UTF-8"?>
<svg width="174px" height="180px" viewBox="0 0 174 180" version="1.1" xmlns="http://www.w3.org/2000/svg" xmlns:xlink="http://www.w3.org/1999/xlink">
    <!-- Generator: Sketch 54 (76480) - https://sketchapp.com -->
    <title>编组复制 3</title>
    <desc>Created with Sketch.</desc>
    <defs>
        <path d="M0.142687927,30.7429295 C0.142687927,47.642511 13.8387472,61.3427313 30.7333941,61.3427313 L30.7333941,61.3427313 C47.628041,61.3427313 61.3241002,47.642511 61.3241002,30.7429295 L61.3241002,30.7429295 C61.3241002,13.8427533 47.628041,0.142929515 30.7333941,0.142929515 L30.7333941,0.142929515 C13.8387472,0.142929515 0.142687927,13.8427533 0.142687927,30.7429295" id="path-1"></path>
        <linearGradient x1="3.88701732e-07%" y1="49.9998337%" x2="100.000001%" y2="49.9998337%" id="linearGradient-3">
            <stop stop-color="#00AFFF" offset="0%"></stop>
            <stop stop-color="#267EF4" offset="100%"></stop>
        </linearGradient>
        <path d="M76.4965831,0 C46.8398884,0 20.5415125,14.3587665 4.15122779,36.4993612 L4.15122779,36.4993612 L4.2390205,36.5522907 C1.67123235,39.8918062 0.128022779,44.0611454 0.128022779,48.6 L0.128022779,48.6 C0.128022779,59.5351982 8.98993394,68.4 19.9218109,68.4 L19.9218109,68.4 C28.1713531,68.4 35.2365854,63.3485022 38.2098451,56.1714978 L38.2098451,56.1714978 C50.3226629,33.4772247 74.1745353,18 101.688929,18 L101.688929,18 C118.838829,18 134.569182,24.022467 146.934478,34.0376432 L146.934478,34.0376432 C130.45105,13.3063216 105.034763,0 76.4965831,0 Z" id="path-4"></path>
        <linearGradient x1="-9.01344795e-05%" y1="50.0000057%" x2="99.9999899%" y2="50.0000057%" id="linearGradient-6">
            <stop stop-color="#00AFFF" offset="0%"></stop>
            <stop stop-color="#267EF4" offset="100%"></stop>
        </linearGradient>
        <path d="M0.126833713,19.8079295 C0.126833713,25.9840308 2.9562164,31.4970264 7.38568565,35.1281498 L7.38568565,35.1281498 C23.8865535,54.3861674 48.3589203,66.6079295 75.7038724,66.6079295 L75.7038724,66.6079295 C104.242052,66.6079295 129.658339,53.3018062 146.141768,32.5702863 L146.141768,32.5702863 C133.776472,42.585859 118.046118,48.6079295 100.896219,48.6079295 L100.896219,48.6079295 C73.5046948,48.6079295 49.6944396,33.2986123 37.530492,10.7710573 L37.530492,10.7710573 L37.5211777,10.7762115 C34.2377699,4.38720264 27.5966378,0.00792951542 19.92082,0.00792951542 L19.92082,0.00792951542 C8.98874487,0.00792951542 0.126833713,8.8723348 0.126833713,19.8079295" id="path-7"></path>
        <linearGradient x1="-8.1434552e-08%" y1="50.0000013%" x2="99.9999867%" y2="50.0000013%" id="linearGradient-9">
            <stop stop-color="#00AFFF" offset="0%"></stop>
            <stop stop-color="#267EF4" offset="100%"></stop>
        </linearGradient>
        <path d="M0,35.2863436 C0,48.4693612 2.85692938,60.9775771 7.94831207,72.2602863 L7.94831207,72.2602863 C10.7624351,60.3551101 21.4281595,51.4863436 34.1896128,51.4863436 L34.1896128,51.4863436 C38.3420296,51.4863436 42.2528679,52.4602863 45.7647745,54.1371806 L45.7647745,54.1371806 C44.1341686,48.1196696 43.1868793,41.8200661 43.1868793,35.2863436 L43.1868793,35.2863436 C43.1868793,29.3294934 43.9898952,23.5732599 45.3531595,18.0372687 L45.3531595,18.0372687 C41.7463257,19.8344934 37.7042938,20.8863436 33.3978929,20.8863436 L33.3978929,20.8863436 C20.6261344,20.8863436 9.95149203,12.0023128 7.14866515,0.0816740088 L7.14866515,0.0816740088 C2.54896128,10.8957489 0,22.7927974 0,35.2863436" id="path-10"></path>
        <linearGradient x1="0%" y1="49.9999732%" x2="100.00007%" y2="49.9999732%" id="linearGradient-12">
            <stop stop-color="#00AFFF" offset="0%"></stop>
            <stop stop-color="#267EF4" offset="100%"></stop>
        </linearGradient>
        <path d="M0.181332574,18.2557269 C1.69422096,18.1135903 3.22217084,18.0237885 4.77211845,18.0237885 L4.77211845,18.0237885 C24.14359,18.0237885 40.817467,29.3923348 48.6203166,45.7981057 L48.6203166,45.7981057 L48.872795,45.6928414 C51.9164077,52.7110573 58.8980091,57.6237885 67.0332027,57.6237885 L67.0332027,57.6237885 C77.9654761,57.6237885 86.8273872,48.7589868 86.8273872,37.8237885 L86.8273872,37.8237885 C86.8273872,33.6580176 85.5348724,29.797533 83.3380729,26.6082819 L83.3380729,26.6082819 C74.8388269,10.7926652 58.1697062,0.0237885463 38.9617312,0.0237885463 L38.9617312,0.0237885463 C23.3623736,0.0237885463 9.4235467,7.11951542 0.181332574,18.2557269" id="path-13"></path>
        <linearGradient x1="-0.000123692288%" y1="50.0000084%" x2="99.9999716%" y2="50.0000084%" id="linearGradient-15">
            <stop stop-color="#00AFFF" offset="0%"></stop>
            <stop stop-color="#267EF4" offset="100%"></stop>
        </linearGradient>
    </defs>
    <g id="Welcome" stroke="none" stroke-width="1" fill="none" fill-rule="evenodd">
        <g id="welcome1.1" transform="translate(-643.000000, -210.000000)">
            <g id="编组-2" transform="translate(603.940000, 210.000000)">
                <g id="编组复制-3" transform="translate(39.060000, 0.000000)">
                    <g id="编组" transform="translate(61.038724, 61.057269)">
                        <mask id="mask-2" fill="white">
                            <use xlink:href="#path-1"></use>
                        </mask>
                        <g id="Clip-2"></g>
                        <path d="M0.142687927,30.7429295 C0.142687927,47.642511 13.8387472,61.3427313 30.7333941,61.3427313 L30.7333941,61.3427313 C47.628041,61.3427313 61.3241002,47.642511 61.3241002,30.7429295 L61.3241002,30.7429295 C61.3241002,13.8427533 47.628041,0.142929515 30.7333941,0.142929515 L30.7333941,0.142929515 C13.8387472,0.142929515 0.142687927,13.8427533 0.142687927,30.7429295" id="Fill-1" fill="url(#linearGradient-3)" mask="url(#mask-2)"></path>
                    </g>
                    <g id="编组" transform="translate(13.476082, 0.000000)">
                        <mask id="mask-5" fill="white">
                            <use xlink:href="#path-4"></use>
                        </mask>
                        <g id="Clip-4"></g>
                        <path d="M76.4965831,0 C46.8398884,0 20.5415125,14.3587665 4.15122779,36.4993612 L4.15122779,36.4993612 L4.2390205,36.5522907 C1.67123235,39.8918062 0.128022779,44.0611454 0.128022779,48.6 L0.128022779,48.6 C0.128022779,59.5351982 8.98993394,68.4 19.9218109,68.4 L19.9218109,68.4 C28.1713531,68.4 35.2365854,63.3485022 38.2098451,56.1714978 L38.2098451,56.1714978 C50.3226629,33.4772247 74.1745353,18 101.688929,18 L101.688929,18 C118.838829,18 134.569182,24.022467 146.934478,34.0376432 L146.934478,34.0376432 C130.45105,13.3063216 105.034763,0 76.4965831,0 Z" id="Fill-3" fill="url(#linearGradient-6)" mask="url(#mask-5)"></path>
                    </g>
                    <g id="编组" transform="translate(14.268793, 113.392070)">
                        <mask id="mask-8" fill="white">
                            <use xlink:href="#path-7"></use>
                        </mask>
                        <g id="Clip-6"></g>
                        <path d="M0.126833713,19.8079295 C0.126833713,25.9840308 2.9562164,31.4970264 7.38568565,35.1281498 L7.38568565,35.1281498 C23.8865535,54.3861674 48.3589203,66.6079295 75.7038724,66.6079295 L75.7038724,66.6079295 C104.242052,66.6079295 129.658339,53.3018062 146.141768,32.5702863 L146.141768,32.5702863 C133.776472,42.585859 118.046118,48.6079295 100.896219,48.6079295 L100.896219,48.6079295 C73.5046948,48.6079295 49.6944396,33.2986123 37.530492,10.7710573 L37.530492,10.7710573 L37.5211777,10.7762115 C34.2377699,4.38720264 27.5966378,0.00792951542 19.92082,0.00792951542 L19.92082,0.00792951542 C8.98874487,0.00792951542 0.126833713,8.8723348 0.126833713,19.8079295" id="Fill-5" fill="url(#linearGradient-9)" mask="url(#mask-8)"></path>
                    </g>
                    <g id="编组" transform="translate(0.000000, 54.713656)">
                        <mask id="mask-11" fill="white">
                            <use xlink:href="#path-10"></use>
                        </mask>
                        <g id="Clip-8"></g>
                        <path d="M0,35.2863436 C0,48.4693612 2.85692938,60.9775771 7.94831207,72.2602863 L7.94831207,72.2602863 C10.7624351,60.3551101 21.4281595,51.4863436 34.1896128,51.4863436 L34.1896128,51.4863436 C38.3420296,51.4863436 42.2528679,52.4602863 45.7647745,54.1371806 L45.7647745,54.1371806 C44.1341686,48.1196696 43.1868793,41.8200661 43.1868793,35.2863436 L43.1868793,35.2863436 C43.1868793,29.3294934 43.9898952,23.5732599 45.3531595,18.0372687 L45.3531595,18.0372687 C41.7463257,19.8344934 37.7042938,20.8863436 33.3978929,20.8863436 L33.3978929,20.8863436 C20.6261344,20.8863436 9.95149203,12.0023128 7.14866515,0.0816740088 L7.14866515,0.0816740088 C2.54896128,10.8957489 0,22.7927974 0,35.2863436" id="Fill-7" fill="url(#linearGradient-12)" mask="url(#mask-11)"></path>
                    </g>
                    <g id="编组" transform="translate(87.000000, 25.176211)">
                        <mask id="mask-14" fill="white">
                            <use xlink:href="#path-13"></use>
                        </mask>
                        <g id="Clip-10"></g>
                        <path d="M0.181332574,18.2557269 C1.69422096,18.1135903 3.22217084,18.0237885 4.77211845,18.0237885 L4.77211845,18.0237885 C24.14359,18.0237885 40.817467,29.3923348 48.6203166,45.7981057 L48.6203166,45.7981057 L48.872795,45.6928414 C51.9164077,52.7110573 58.8980091,57.6237885 67.0332027,57.6237885 L67.0332027,57.6237885 C77.9654761,57.6237885 86.8273872,48.7589868 86.8273872,37.8237885 L86.8273872,37.8237885 C86.8273872,33.6580176 85.5348724,29.797533 83.3380729,26.6082819 L83.3380729,26.6082819 C74.8388269,10.7926652 58.1697062,0.0237885463 38.9617312,0.0237885463 L38.9617312,0.0237885463 C23.3623736,0.0237885463 9.4235467,7.11951542 0.181332574,18.2557269" id="Fill-9" fill="url(#linearGradient-15)" mask="url(#mask-14)"></path>
                    </g>
                </g>
            </g>
        </g>
    </g>
</svg>