<?xml version="1.0" encoding="UTF-8"?>
<svg width="379px" height="80px" viewBox="0 0 379 80" version="1.1" xmlns="http://www.w3.org/2000/svg" xmlns:xlink="http://www.w3.org/1999/xlink">
    <!-- Generator: Sketch 54 (76480) - https://sketchapp.com -->
    <title>logo</title>
    <desc>Created with Sketch.</desc>
    <defs>
        <polygon id="path-1" points="0 1.23909677 59.1752201 1.23909677 59.1752201 77.4193548 0 77.4193548"></polygon>
    </defs>
    <g id="Welcome" stroke="none" stroke-width="1" fill="none" fill-rule="evenodd">
        <g id="welcome复制-5" transform="translate(-548.000000, -291.000000)">
            <g id="logo" transform="translate(548.000000, 291.000000)">
                <path d="M129.238222,49.1620645 C129.238222,32.7594839 115.932195,19.4575484 99.518804,19.4575484 C83.1092856,19.4575484 69.8019679,32.7594839 69.8019679,49.1620645 C69.8019679,65.5646452 83.1092856,78.8627097 99.518804,78.8627097 L99.518804,66.2227097 C90.0934328,66.2227097 82.450891,58.584 82.450891,49.1620645 C82.450891,39.7375484 90.0934328,32.0988387 99.518804,32.0988387 C106.759854,32.0988387 112.933272,36.6085161 115.414516,42.9685161 L99.5265498,42.9685161 L99.5265498,55.3530323 L128.344871,55.3530323 L128.627593,55.1517419 C128.839312,54.1169032 128.996811,53.060129 129.101379,51.9904516 C129.189165,51.0588387 129.238222,50.1143226 129.238222,49.1620645" id="Fill-1" fill="#257DF3"></path>
                <path d="M113.975989,58.1691613 C111.394049,62.2930323 107.115775,65.2272258 102.101647,65.9910968 L102.101647,78.7265806 C114.222564,77.6814194 124.243072,69.3717419 127.812604,58.1691613 L113.975989,58.1691613 Z" id="Fill-3" fill="#AEB4C4"></path>
                <path d="M198.950597,49.1620645 C198.950597,32.7594839 185.64457,19.4575484 169.231179,19.4575484 C152.82166,19.4575484 139.514342,32.7594839 139.514342,49.1620645 C139.514342,65.5646452 152.82166,78.8627097 169.231179,78.8627097 L169.231179,66.2227097 C159.805807,66.2227097 152.163266,58.584 152.163266,49.1620645 C152.163266,39.7375484 159.805807,32.0988387 169.231179,32.0988387 C176.472229,32.0988387 182.645647,36.6085161 185.126891,42.9685161 L169.238924,42.9685161 L169.238924,55.3530323 L198.057245,55.3530323 L198.339968,55.1517419 C198.551687,54.1169032 198.709185,53.060129 198.813754,51.9904516 C198.90154,51.0588387 198.950597,50.1143226 198.950597,49.1620645" id="Fill-5" fill="#257DF3"></path>
                <path d="M183.688363,58.1691613 C181.106423,62.2930323 176.828149,65.2272258 171.814022,65.9910968 L171.814022,78.7265806 C183.934938,77.6814194 193.955447,69.3717419 197.524979,58.1691613 L183.688363,58.1691613 Z" id="Fill-7" fill="#AEB4C4"></path>
                <g id="编组" transform="translate(0.000000, 2.147226)">
                    <mask id="mask-2" fill="white">
                        <use xlink:href="#path-1"></use>
                    </mask>
                    <g id="Clip-10"></g>
                    <path d="M12.6499559,74.9849032 C7.32083211,73.3629677 3.10452441,71.212 -0.00025819398,68.5307097 L4.76471171,57.8455484 C7.7972,60.2429677 11.5203572,62.2016774 15.9316013,63.7178065 C20.3415545,65.2339355 24.7721632,65.9913548 29.2169726,65.9913548 C34.7229592,65.9913548 38.8321164,65.1113548 41.550899,63.3461935 C44.2658087,61.5836129 45.6252,59.2571613 45.6252,56.3629677 C45.6252,54.248129 44.8661097,52.5010323 43.3492201,51.1268387 C41.8310395,49.7500645 39.9087853,48.6752258 37.5811666,47.8997419 C35.2509659,47.1229677 32.0751799,46.2429677 28.0538087,45.2532903 C22.4058154,43.9152258 17.8383639,42.5745806 14.3437084,41.2339355 C10.8503438,39.8945806 7.85012977,37.7952258 5.34693913,34.9384516 C2.83987559,32.0803871 1.58892575,28.2197419 1.58892575,23.3513548 C1.58892575,19.2610323 2.69915987,15.5410323 4.923501,12.1887742 C7.1452602,8.83909677 10.4966181,6.17716129 14.9801565,4.20167742 C19.4598221,2.22619355 24.9464441,1.23909677 31.4413137,1.23909677 C35.9558355,1.23909677 40.4019358,1.80296774 44.7796147,2.93070968 C49.1534207,4.05974194 52.9295077,5.68167742 56.1052936,7.79909677 L51.7650528,18.4855484 C48.5182635,16.5797419 45.1307585,15.1345806 41.6038288,14.1474839 C38.0730261,13.1603871 34.6506649,12.6649032 31.3354542,12.6649032 C25.8991799,12.6649032 21.8610261,13.5823226 19.2132468,15.415871 C16.5667585,17.252 15.2448054,19.6855484 15.2448054,22.7165161 C15.2448054,24.8339355 16.0013137,26.5629677 17.5194943,27.9023226 C19.0363839,29.2429677 20.9599291,30.2997419 23.2888388,31.0765161 C25.6177485,31.852 28.7935344,32.7345806 32.8161967,33.7216774 C38.3221833,34.9913548 42.836705,36.3126452 46.3662167,37.6894194 C49.8957284,39.0636129 52.9114341,41.1642581 55.4172067,43.9849032 C57.9216883,46.8055484 59.1752201,50.6145806 59.1752201,55.4107097 C59.1752201,59.5036129 58.064986,63.2055484 55.8406448,66.5203871 C53.6175946,69.8378065 50.2468722,72.4829677 45.7310595,74.4571613 C41.2139559,76.4300645 35.7092602,77.4197419 29.2169726,77.4197419 C23.5005579,77.4197419 17.9777886,76.6068387 12.6499559,74.9849032" id="Fill-9" fill="#AEB4C4" mask="url(#mask-2)"></path>
                </g>
                <polygon id="Fill-11" fill="#AEB4C4" points="233.731133 54.2780645 223.886197 63.5903226 223.886197 78.5077419 210.653755 78.5077419 210.653755 0.00064516129 223.886197 0.00064516129 223.886197 47.4006452 251.303815 22.0070968 267.182745 22.0070968 243.57607 45.7077419 269.407086 78.5077419 253.315146 78.5077419"></polygon>
                <path d="M294.758379,35.7094194 C291.829168,38.2139355 290.04892,41.5468387 289.412472,45.708129 L321.48791,45.708129 C320.922466,41.6178065 319.193857,38.3016774 316.300793,35.7623226 C313.406439,33.2229677 309.807215,31.9532903 305.503121,31.9532903 C301.26874,31.9532903 297.686298,33.2074839 294.758379,35.7094194 M333.873476,54.4900645 L289.518332,54.4900645 C290.294205,58.6526452 292.323609,61.9494194 295.605255,64.3829677 C298.8869,66.8165161 302.962492,68.0332903 307.832031,68.0332903 C314.041596,68.0332903 319.159001,65.988129 323.182954,61.8965161 L330.274252,70.0436129 C327.733623,73.0771613 324.52169,75.3700645 320.641034,76.9197419 C316.759088,78.4732903 312.383991,79.2487742 307.514452,79.2487742 C301.303596,79.2487742 295.833757,78.0152258 291.106225,75.5455484 C286.377402,73.0771613 282.725248,69.6384516 280.151054,65.2294194 C277.572987,60.8216774 276.28589,55.8307097 276.28589,50.2578065 C276.28589,44.755871 277.538131,39.8010323 280.045195,35.392 C282.548385,30.9842581 286.024967,27.5455484 290.471068,25.075871 C294.917168,22.6074839 299.927422,21.3726452 305.503121,21.3726452 C311.007817,21.3726452 315.930285,22.5894194 320.270526,25.0229677 C324.610767,27.4565161 327.998272,30.8784516 330.433041,35.2861935 C332.869101,39.6952258 334.085195,44.792 334.085195,50.5752258 C334.085195,51.4926452 334.014191,52.7971613 333.873476,54.4900645" id="Fill-13" fill="#AEB4C4"></path>
                <path d="M378.791007,21.3722581 L378.791007,33.9632258 C377.661408,33.7529032 376.637669,33.6470968 375.72108,33.6470968 C370.57011,33.6470968 366.547448,35.1464516 363.653094,38.1425806 C360.758739,41.1412903 359.312853,45.4612903 359.312853,51.103871 L359.312853,78.5077419 L346.080411,78.5077419 L346.080411,22.0070968 L358.678987,22.0070968 L358.678987,30.2612903 C362.488639,24.3348387 369.192645,21.3722581 378.791007,21.3722581" id="Fill-15" fill="#AEB4C4"></path>
            </g>
        </g>
    </g>
</svg>