<?xml version="1.0" encoding="UTF-8"?>
<svg width="546px" height="14px" viewBox="0 0 546 14" version="1.1" xmlns="http://www.w3.org/2000/svg" xmlns:xlink="http://www.w3.org/1999/xlink">
    <!-- Generator: Sketch 52.4 (67378) - http://www.bohemiancoding.com/sketch -->
    <title>分组 5 copy</title>
    <desc>Created with Sketch.</desc>
    <g id="Welcome" stroke="none" stroke-width="1" fill="none" fill-rule="evenodd">
        <g id="loading" transform="translate(-488.000000, -221.000000)" fill="#9B9FB0" fill-rule="nonzero">
            <g id="分组-5-copy" transform="translate(488.000000, 221.000000)">
                <circle id="椭圆形" cx="7" cy="7" r="7"></circle>
                <circle id="椭圆形-copy" cx="35" cy="7" r="7"></circle>
                <circle id="椭圆形-copy-2" cx="63" cy="7" r="7"></circle>
                <circle id="椭圆形-copy-7" cx="203" cy="7" r="7"></circle>
                <circle id="椭圆形-copy-12" cx="343" cy="7" r="7"></circle>
                <circle id="椭圆形-copy-3" cx="91" cy="7" r="7"></circle>
                <circle id="椭圆形-copy-8" cx="231" cy="7" r="7"></circle>
                <circle id="椭圆形-copy-13" cx="371" cy="7" r="7"></circle>
                <circle id="椭圆形-copy-4" cx="119" cy="7" r="7"></circle>
                <circle id="椭圆形-copy-9" cx="259" cy="7" r="7"></circle>
                <circle id="椭圆形-copy-14" cx="399" cy="7" r="7"></circle>
                <circle id="椭圆形-copy-37" cx="483" cy="7" r="7"></circle>
                <circle id="椭圆形-copy-5" cx="147" cy="7" r="7"></circle>
                <circle id="椭圆形-copy-10" cx="287" cy="7" r="7"></circle>
                <circle id="椭圆形-copy-15" cx="427" cy="7" r="7"></circle>
                <circle id="椭圆形-copy-38" cx="511" cy="7" r="7"></circle>
                <circle id="椭圆形-copy-6" cx="175" cy="7" r="7"></circle>
                <circle id="椭圆形-copy-11" cx="315" cy="7" r="7"></circle>
                <circle id="椭圆形-copy-36" cx="455" cy="7" r="7"></circle>
                <circle id="椭圆形-copy-39" cx="539" cy="7" r="7"></circle>
            </g>
        </g>
    </g>
</svg>