<?xml version="1.0" encoding="UTF-8"?>
<svg width="542px" height="10px" viewBox="0 0 542 10" version="1.1" xmlns="http://www.w3.org/2000/svg" xmlns:xlink="http://www.w3.org/1999/xlink">
    <!-- Generator: Sketch 52.4 (67378) - http://www.bohemiancoding.com/sketch -->
    <title>分组 4 copy</title>
    <desc>Created with Sketch.</desc>
    <g id="Welcome" stroke="none" stroke-width="1" fill="none" fill-rule="evenodd" opacity="0.200000003">
        <g id="loading" transform="translate(-490.000000, -173.000000)" fill="#040F39" fill-rule="nonzero">
            <g id="分组-4-copy" transform="translate(490.000000, 173.000000)">
                <circle id="椭圆形-copy-16" cx="453" cy="5" r="5"></circle>
                <circle id="椭圆形-copy-20" cx="369" cy="5" r="5"></circle>
                <circle id="椭圆形-copy-23" cx="285" cy="5" r="5"></circle>
                <circle id="椭圆形-copy-29" cx="117" cy="5" r="5"></circle>
                <circle id="椭圆形-copy-26" cx="201" cy="5" r="5"></circle>
                <circle id="椭圆形-copy-30" cx="33" cy="5" r="5"></circle>
                <circle id="椭圆形-copy-35" cx="5" cy="5" r="5"></circle>
                <circle id="椭圆形-copy-18" cx="509" cy="5" r="5"></circle>
                <circle id="椭圆形-copy-21" cx="425" cy="5" r="5"></circle>
                <circle id="椭圆形-copy-24" cx="341" cy="5" r="5"></circle>
                <circle id="椭圆形-copy-31" cx="173" cy="5" r="5"></circle>
                <circle id="椭圆形-copy-27" cx="257" cy="5" r="5"></circle>
                <circle id="椭圆形-copy-32" cx="89" cy="5" r="5"></circle>
                <circle id="椭圆形-copy-17" cx="481" cy="5" r="5"></circle>
                <circle id="椭圆形-copy-22" cx="397" cy="5" r="5"></circle>
                <circle id="椭圆形-copy-25" cx="313" cy="5" r="5"></circle>
                <circle id="椭圆形-copy-33" cx="145" cy="5" r="5"></circle>
                <circle id="椭圆形-copy-28" cx="229" cy="5" r="5"></circle>
                <circle id="椭圆形-copy-34" cx="61" cy="5" r="5"></circle>
                <circle id="椭圆形-copy-19" cx="537" cy="5" r="5"></circle>
            </g>
        </g>
    </g>
</svg>