<?xml version="1.0" standalone="no"?>
<!DOCTYPE svg PUBLIC "-//W3C//DTD SVG 1.1//EN" "http://www.w3.org/Graphics/SVG/1.1/DTD/svg11.dtd" >
<!--
2013-9-30: Created.
-->
<svg>
<metadata>
Created by iconfont
</metadata>
<defs>

<font id="ofont" horiz-adv-x="1024" >
  <font-face
    font-family="ofont"
    font-weight="500"
    font-stretch="normal"
    units-per-em="1024"
    ascent="896"
    descent="-128"
  />
    <missing-glyph />
    
    <glyph glyph-name="tianjia" unicode="&#59047;" d="M896 896 128 896c-70.688 0-128-57.312-128-128l0-768c0-70.688 57.312-128 128-128l768 0c70.688 0 128 57.312 128 128L1024 768C1024 838.688 966.688 896 896 896zM800 352l-256 0 0-256c0-17.664-14.304-32-32-32s-32 14.336-32 32L480 352 224 352c-17.696 0-32 14.336-32 32 0 17.696 14.304 32 32 32l256 0 0 256c0 17.696 14.304 32 32 32s32-14.304 32-32l0-256 256 0c17.696 0 32-14.304 32-32C832 366.336 817.696 352 800 352z"  horiz-adv-x="1024" />

    
    <glyph glyph-name="qianbao" unicode="&#58961;" d="M828.998685 272.603679c0-25.446369 20.592615-46.069705 45.998025-46.069704s45.998025 20.623335 45.998025 46.069704-20.592615 46.064585-45.998025 46.064585-45.998025-20.618215-45.998025-46.064585zM861.874166 733.295606L785.407058 865.944407c-16.57342 28.738526-53.268416 38.589394-81.965982 21.995494L435.998197 733.295606h425.875969zM846.498824 172.953239c-54.952894 0-99.501961 44.615626-99.50196 99.64532 0 55.039934 44.543947 99.65556 99.50196 99.655561H1023.998771V613.113991c0 33.1878-26.864608 60.088248-60.001208 60.088248H60.001208C26.864608 673.202239 0 646.296671 0 613.113991v-681.025743C0-101.099552 26.864608-128 60.001208-128h904.001475c33.1366 0 60.001208 26.900448 60.001208 60.088248V172.953239h-177.505067z"  horiz-adv-x="1024" />

    
    <glyph glyph-name="add" unicode="&#59021;" d="M116.4921875 779.5078125v-791.015625h791.015625V779.5078125H116.4921875z m633.37053603-421.31696449H537.80915199v-210.65848186h-53.01339289V358.19084800999997H274.13727647v53.01339289h210.65848263V621.86272353h53.01339289v-210.65848263h210.65848186v-53.01339289z"  horiz-adv-x="1024" />

    
    <glyph glyph-name="ont" unicode="&#58986;" d="M502.5078125 383.60449219l-202.89550781 204.87304687v-204.87304687c0-112.71972656 91.36230469-204.08203125 204.08203125-204.08203125 56.16210938 0 106.78710938 22.54394531 143.56933593 59.32617187l-144.75585937 144.75585938z m18.984375 0.79101562l202.89550781-204.87304687V384.39550781c0 112.71972656-91.36230469 204.08203125-204.08203125 204.08203125-56.16210938 0-106.78710938-22.54394531-143.56933593-59.32617187l144.75585937-144.75585938zM512 779.5078125C293.6796875 779.5078125 116.4921875 602.3203125 116.4921875 384s177.1875-395.5078125 395.5078125-395.5078125S907.5078125 165.6796875 907.5078125 384 730.3203125 779.5078125 512 779.5078125z m0-767.28515625c-204.87304688 0-371.77734375 166.90429688-371.77734375 371.77734375s166.90429688 371.77734375 371.77734375 371.77734375 371.77734375-166.90429688 371.77734375-371.77734375-166.90429688-371.77734375-371.77734375-371.77734375z"  horiz-adv-x="1024" />

    
    <glyph glyph-name="rocket" unicode="&#58996;" d="M475.3152175 405.33333333c0 52.4068319 44.54580762 96.95263953 96.95263952 96.95263953s96.95263953-41.92546619 96.95263953-96.95263953-41.92546619-96.95263953-96.95263953-96.95263953c-52.4068319 0-96.95263953 44.54580762-96.95263952 96.95263953m-41.92546618-238.45108667c5.24068286 2.62034143 13.10170798 5.24068286 18.34239166 2.62034143 23.58307452-2.62034143 47.16614904-5.24068286 70.74922357-5.24068369 170.32220535 0 319.68167678 89.09161523 406.15295059 225.34937952 5.24068286 10.48136655 5.24068286 20.9627331 0 28.82375739-83.85093155 136.25776428-233.21040381 225.34937869-406.15295059 225.34937869-23.58307451 0-47.16614903-2.62034143-70.74922358-5.24068286-7.86102512 0-13.10170798 0-18.34239165 2.62034143-55.02717416 34.06444107-123.15605632 52.40683191-193.90527906 52.40683274-31.44409963 0-62.88819846-5.24068286-94.3322981-13.10170881-26.20341595-7.86102512-28.82375739-41.92546619-5.24068368-55.02717335 39.30512393-18.34239166 73.369565-44.54580762 104.81366464-75.98990725-2.62034143-2.62034143-5.24068286-5.24068286-10.48136655-7.86102429-2.62034143-23.58307452-2.62034142-49.78649048-5.24068286-73.36956582-68.12888213-15.72204941-138.87810571-41.92546619-138.87810571-70.74922358s70.74922357-55.02717416 138.87810571-70.74922356c0-23.58307451 2.62034142-49.78649048 5.24068286-73.369565 2.62034143-2.62034143 5.24068286-5.24068286 10.48136655-7.86102513-31.44409964-31.44409964-68.12888213-57.64751559-104.81366464-75.98990643-23.58307452-10.48136655-20.9627331-47.16614904 5.24068368-55.02717417 31.44409963-7.86102512 62.88819846-13.10170798 94.3322981-13.10170797 70.74922357 13.10170798 138.87810571 31.44409964 193.90527906 65.50854071"  horiz-adv-x="1024" />

    
    <glyph glyph-name="kuanggong" unicode="&#58924;" d="M1089.536 407.6544H697.856L551.2192 244.5312l178.7904-249.5488L614.4-128 0 584.3968 261.632 884.4288h705.7408l261.4272-300.032-139.0592-176.7424zM908.288-128L631.808 244.5312l95.3344 109.568h365.1584l91.9552-109.568L908.288-128z"  horiz-adv-x="1228" />

    
    <glyph glyph-name="dapp1" unicode="&#58932;" d="M864 752h-304a16.04608 16.04608 0 0 1-16-16v-304a16.04608 16.04608 0 0 1 16-16h304a16.04608 16.04608 0 0 1 16 16V736a16.04608 16.04608 0 0 1-16 16zM464 752H160a16.04608 16.04608 0 0 1-16-16v-304a16.04608 16.04608 0 0 1 16-16h304a16.04608 16.04608 0 0 1 16 16V736a16.04608 16.04608 0 0 1-16 16zM464 352H160a16.04608 16.04608 0 0 1-16-16v-304a16.04608 16.04608 0 0 1 16-16h304a16.04608 16.04608 0 0 1 16 16v304a16.04608 16.04608 0 0 1-16 16zM880 219.4432h-132.5568v132.5568H676.5568v-132.5568h-132.5568v-70.89152h132.5568v-132.5568h70.89152v132.5568h132.5568z"  horiz-adv-x="1024" />

    
    <glyph glyph-name="transfer_right" unicode="&#58883;" d="M100.91428531 527.10857156a36.34285688 36.34285688 0 0 0-0.27428531 4.45714313c0 22.62857156 20.84571469 40.86857156 46.42285687 40.86857062 25.78285688 0 46.42285688-18.24 46.42285782-40.86857062a36.48 36.48 0 0 0-0.27428625-4.45714313h0.27428625v-254.33142843h-0.27428625c-2.46857156-20.43428531-22.14857156-36.34285688-46.08-36.34285782-23.93142844 0-43.68 15.90857156-46.21714313 36.34285781H100.57142844V527.10857156h0.34285687z m764.77714313-122.67428625L707.08571469 556.45714312c-24-41.14285687-68.84571469-66.44571469-117.25714313-66.30857156H366.35428531v-171.63428625h223.54285782a135.15428531 135.15428531 0 0 0 117.25714218-66.37714219l158.46857157 152.29714219z m107.79428625 0a41.82857156 41.82857156 0 0 0-13.02857156-30.30857062l-294.30857157-282.51428625c-17.34857156-16.73142844-31.54285687-11.04-31.54285687 12.54857156V189.94285688000002a43.88571469 43.88571469 0 0 1-44.70857156 42.92571468h-268.11428625a43.88571469 43.88571469 0 0 0-44.70857157 42.85714313V533.14285688a43.88571469 43.88571469 0 0 0 44.70857157 42.85714312h268.11428625a43.88571469 43.88571469 0 0 1 44.64 42.92571469v85.71428531c0 23.65714313 14.26285687 29.34857156 31.54285687 12.54857156l294.44571469-282.44571468a41.82857156 41.82857156 0 0 0 12.96-30.30857157z"  horiz-adv-x="1024" />

    
    <glyph glyph-name="transfer_asset" unicode="&#58884;" d="M543.57544443 378.38268375999996h67.09325098c19.23377344 0 19.23377344 0 19.23377344-20.52727207 0-2.6432376-0.11247802-5.28647607 0-7.53604013 0.89982598-10.12303828-3.76801963-13.10371084-12.99123281-13.04747227-21.87701104 0.28119551-43.69778349 0.11247802-65.06864297 0.05623945-4.72408506 0-9.89808222-0.67486904-15.46575381-0.84358652v-28.90689961h49.60289004c8.32338721 0 17.15292685-0.89982598 25.36383515 0.05623945 14.95960136 1.9121291 19.57120839-3.99297656 18.67138243-19.62744785-1.01230401-20.86470703-0.11247802-20.86470703-21.31462003-20.92094648H535.42077471v-69.17409757c0-21.4833375 0-21.4833375-21.25838145-21.53957607-2.81195508 0-5.96134512 0.22495606-8.77330019 0-14.1722543-2.36204209-17.88403536 4.89280166-17.37788291 18.16522998 0.89982598 19.68368643-0.05623945 39.81728584 0.44991299 59.50097227 0.11247802 9.67312617-3.20562862 13.27242832-12.82251534 13.15995029-22.10196797-0.73110849-44.20393506 0.16871748-66.4746205-0.67486993-11.07910372-0.16871748-15.1845583 4.3866501-14.34097178 15.46575382 0.39367354 3.93673711 0.39367354 7.81723565 0 12.20388574-0.84358652 10.46047325 4.21793262 13.94729737 14.22849286 13.4411458 25.36383604-0.28119551 50.95262812-0.11247802 77.72244171-0.11247891v29.80672559c-23.90161904 0-47.80323809-0.11247802-71.70485713 0.11247803-6.4112581 0.11247802-17.54660039 1.79965107-17.99651338 4.49912813a106.57310185 106.57310185 0 0 0 0.05623945 32.78739726c0.11247802 1.68717305 7.42356211 3.09315059 11.47277725 3.54306357 23.00179307 0.16871748 45.94734756 0.11247802 71.70485713 0.11247803a3293.58686748 3293.58686748 0 0 1-14.67840674 27.21972656c-26.71357412 49.04049815-53.70834375 97.85604023-80.36567842 146.84029981-7.98595312 14.90336279-6.91740967 16.75925332 9.72936475 17.0966874 34.86824385 0.22495606 34.86824385 0.22495606 51.73997519-30.70655068 18.89633847-34.98072276 38.07387334-69.73648857 56.97021182-104.71721133 2.36204209-4.21793262 5.06151914-8.43586523 8.99825712-14.50968838 10.74166875 19.29001289 21.37085948 38.5800249 31.94381075 57.92627724 14.79088388 26.76981357 30.03168164 53.42714824 44.09145703 80.53439591 4.49912813 8.21090918 9.22321318 12.14764628 18.44642636 11.58525526 11.97892881-0.84358652 24.46401006-0.11247802 41.84189297-0.11247802-36.44293886-65.74351201-69.79272803-126.93165732-105.44831982-191.15671377zM63.57469502 518.36181334l143.74714922 37.68019893c12.54131982-50.16528018 24.97016162-100.33056123 37.23028594-150.55207998-27.72587812 17.37788291-54.88936523 33.9121793-83.57130791 51.7399752-1.23726006-5.73638818-2.08084658-8.99825625-2.58699815-12.14764629-32.89987529-224.00034961 141.94749727-427.97957871 362.29230528-422.35566856 86.2145455 2.41828154 161.79990117 33.0123542 226.92478359 91.16358663 5.17399717 5.06151914 8.82953964 5.39895411 14.79088389 1.68717305 11.30405977-7.87347422 22.94555449-14.45344981 34.41833174-21.65205411 0.67486904-0.56239102 0.73110849-1.46221699 1.51845556-2.53076045-1.7434125-1.85589052-3.43058555-4.33041065-5.34271465-6.18630117-125.41320088-113.8279456-267.64189453-145.0968873-425.0551456-86.83317597-101.06166973 37.51148232-174.90361201 109.32881748-222.31317656 208.6470747C105.64154404 290.93087819000004 94.44996318 380.01361823 111.54665059 471.85207477c2.02460801 9.95432168 0.28119551 15.24079688-8.49210469 19.79616446C88.99476963 499.12803992 75.83481933 507.67638318 62.22495605 515.43738024c0.44991299 1.12478203 0.89982598 2.02460801 1.34973897 2.92443311z m716.37370225-140.59775917c28.17579112-17.15292685 55.33927823-33.96841875 85.20224237-52.13364961 1.68717305 23.39546748 4.33041065 43.92273955 4.27417208 64.50625195-0.73110849 184.74545566-127.10037393 338.10949161-303.97235537 366.28528272-106.57310185 16.98420937-201.89838252-12.20388575-284.90729942-83.17763438-13.21618974-11.24782031-8.43586523-10.7979082-23.67666299-1.85589052a1992.83263857 1992.83263857 0 0 1-32.61867978 18.8400999c3.03691201 3.48682412 4.49912813 5.62391016 6.18630117 7.19860517C301.18490791 765.81386901 384.69997724 806.75593688 481.37499599 811.76121745c171.02311435 8.94201768 301.27287833-64.4500125 387.26246778-216.35183232 50.05280214-88.57658848 62.42540537-185.58904219 43.36034941-286.48199356-1.18102148-8.0421917 0-11.92269023 7.0298877-15.57823183 14.67840586-7.87347422 28.68194268-16.70301387 42.85419697-24.85768448a5.56767158 5.56767158 0 0 0-0.78734707-2.58699814c-47.57828203-12.54131982-95.15656318-25.08264052-144.08458418-37.6801998-12.26012432 49.26545508-24.52024951 98.64338818-37.00532988 149.59601542z"  horiz-adv-x="1024" />

    
    <glyph glyph-name="wenjianjia-" unicode="&#58938;" d="M905.86 670.09a36.132 36.132 0 0 1-25.56 10.58H462.4l-11.65 38.71c-4.48 15.35-18.51 25.93-34.5 26.02H137.48c-9.58 0-18.78-3.81-25.56-10.58a36.132 36.132 0 0 1-10.58-25.56v-650.51a36.13 36.13 0 0 1 10.58-25.57 36.16 36.16 0 0 1 25.56-10.59H880.3c9.59 0 18.78 3.81 25.56 10.59a36.155 36.155 0 0 1 10.58 25.57V644.53a36.09 36.09 0 0 1-10.58 25.56z m-45.74-111.4H157.84V589.9a36.142 36.142 0 0 0 36.14 36.14h629.99a36.142 36.142 0 0 0 36.14-36.14v-31.21z"  horiz-adv-x="1024" />

    
    <glyph glyph-name="jiandan" unicode="&#58903;" d="M312.236498 22.18529a157.86522 157.86522 0 1 0 0 66.55939c2.559977 0.511995 5.119953 0.853326 7.765262 0.853325h665.593899a34.13302 34.13302 0 1 0 0-68.266041h-665.593899a34.218353 34.218353 0 0 0-7.765262 0.853326z m0 341.330204a157.86522 157.86522 0 1 0 0 66.55939c2.559977 0.511995 5.119953 0.853326 7.765262 0.853326h665.593899a34.13302 34.13302 0 1 0 0-68.266041h-665.593899a34.218353 34.218353 0 0 0-7.765262 0.853325z m0 341.330205a157.86522 157.86522 0 1 0 0 66.55939c2.559977 0.511995 5.119953 0.853326 7.765262 0.853325h665.593899a34.13302 34.13302 0 1 0 0-68.266041h-665.593899a34.218353 34.218353 0 0 0-7.765262 0.853326zM157.869913 639.99296a98.132434 98.132434 0 1 1 0 196.264868 98.132434 98.132434 0 0 1 0-196.264868z m0-341.330204a98.132434 98.132434 0 1 1 0 196.264867 98.132434 98.132434 0 0 1 0-196.264867z m0-341.330205a98.132434 98.132434 0 1 1 0 196.264868 98.132434 98.132434 0 0 1 0-196.264868z"  horiz-adv-x="1024" />

    
    <glyph glyph-name="gaoji" unicode="&#58904;" d="M485.810196 89.537458a157.821293 157.821293 0 0 0 308.306029 0H964.136677a34.123523 34.123523 0 1 0 0-68.247046H794.116225a157.821293 157.821293 0 0 0-308.306029 0H34.270681a34.123523 34.123523 0 1 0 0 68.247046h451.539515z m-268.722742 341.235228a157.821293 157.821293 0 0 0 308.306029 0H955.605797a34.123523 34.123523 0 1 0 0-68.247045H525.393483a157.821293 157.821293 0 0 0-308.306029 0H34.270681a34.123523 34.123523 0 1 0 0 68.247045h182.816773z m366.82787 341.320537a157.821293 157.821293 0 0 0 308.306029-0.085309h63.384444a34.123523 34.123523 0 1 0 0-68.247045h-63.384444a157.821293 157.821293 0 0 0-308.476646 1.023705H33.844136a33.696979 33.696979 0 0 0 0 67.393958h550.156497zM738.068339 639.779263a98.105128 98.105128 0 1 1 0 196.210257 98.105128 98.105128 0 0 1 0-196.210257z m-366.827871-341.235228a98.105128 98.105128 0 1 1 0 196.210256 98.105128 98.105128 0 0 1 0-196.210256z m268.722743-341.235228a98.105128 98.105128 0 1 1 0 196.210256 98.105128 98.105128 0 0 1 0-196.210256z"  horiz-adv-x="1024" />

    
    <glyph glyph-name="caidan" unicode="&#58910;" d="M1024 822.840889c0-40.391111-32.824889-73.102222-73.216-73.102222h-876.088889a73.159111 73.159111 0 0 0 0 146.261333h876.088889C991.175111 896 1024 863.288889 1024 822.840889zM731.875556 384c0-40.391111-32.768-73.159111-73.159112-73.159111H74.638222a73.102222 73.102222 0 0 0 0 146.318222H658.773333c40.391111 0 73.159111-32.711111 73.159111-73.159111z m146.033777-438.840889c0-40.391111-32.654222-73.159111-72.988444-73.159111H74.524444a73.102222 73.102222 0 0 0 0 146.261333h730.453334c40.391111 0 72.988444-32.768 72.988444-73.102222z"  horiz-adv-x="1024" />

    
    <glyph glyph-name="erweima" unicode="&#58906;" d="M451.136 878.528v-433.664H12.8V851.52C12.8 869.888 26.112 883.2 44.48 883.2H448a54.912 54.912 0 0 1 3.2-4.672z m-63.36-370.24V826.176H69.76v-317.888h317.888zM576 878.528A54.912 54.912 0 0 1 579.2 883.2h403.456c18.304 0 31.68-13.312 31.68-31.68V444.8H576V878.528z m63.36-370.24h317.952V826.176H639.36v-317.888zM197.12 703.232c0.64 0.64 1.28 1.344 1.792 2.048H266.88V629.12h-69.76V703.232z m632.896 0v-74.048h-69.76V705.28h67.904l1.856-2.048z m-378.88-811.2H44.48c-17.6 0-31.68 12.672-31.68 25.28V323.968h438.336v-432z m-63.36 56.96V266.944H69.76v-317.952h317.888zM190.72 79.424v72.96H266.88v-76.096H195.52a33.408 33.408 0 0 1-4.8 3.136z m813.248-3.136h-254.016v146.176H622.72v-336.832h-63.36V323.968h253.952v-190.656h127.36V323.968h63.36v-247.68z m-182.912-132.928l-1.344-57.728h-63.36v63.488-0.128h61.824l2.88-5.632z m182.912-57.728h-63.424 0.064v63.36h-0.064 0.064v0.128-0.128h63.36v-63.36z"  horiz-adv-x="1024" />

    
    <glyph glyph-name="bofang" unicode="&#58909;" d="M173.248 896c24.96 0 45.248-21.056 45.248-47.168v-907.84c0-26.112-20.352-47.104-45.248-47.104-24.96 0-45.248 20.992-45.248 47.104V848.832C128 874.944 148.352 896 173.248 896zM831.36 896c24.896 0 45.248-21.056 45.248-47.168v-907.84c0-26.112-20.352-47.104-45.248-47.104-24.96 0-45.248 20.992-45.248 47.104V848.832c0 26.112 20.352 47.168 45.248 47.168z"  horiz-adv-x="1024" />

    
    <glyph glyph-name="daochu" unicode="&#58911;" d="M889.6 537.6l-6.4 6.4H768A160 160 0 0 0 608 704V819.2l-6.4 6.4H192a57.6 57.6 0 0 1-57.6-57.6v-768a57.6 57.6 0 0 1 57.6-57.6h640a57.6 57.6 0 0 1 57.6 57.6v132.032c0 19.392 14.144 32.64 32.256 33.28 18.24 0.704 31.744-11.52 31.744-33.28V0a121.6 121.6 0 0 0-121.6-121.6H192A121.6 121.6 0 0 0 70.4 0V768C70.4 835.2 124.8 889.6 192 889.6h496l267.52-270.08L953.6 448c0-55.488-64-55.488-64 0V537.6zM672 796.992V704A96 96 0 0 1 768 608h92.992l4.48 10.88-182.528 182.656-10.944-4.544zM558.848 450.88c-18.048 17.792-21.504 32.96-10.048 44.544a35.328 35.328 0 0 0 49.728-0.064l165.568-164.864a34.56 34.56 0 0 0 10.048-21.248 34.496 34.496 0 0 0-9.92-28.16l-160.832-164.992c-15.232-15.104-37.12-17.28-49.6-4.8-13.696 13.696-13.696 26.112-0.064 39.68l111.744 115.776-4.608 10.816H361.472c-20.928 0-35.072 12.16-35.072 30.016 0 16.64 11.712 25.088 35.072 25.088h300.672l4.48 10.88-107.712 107.328z"  horiz-adv-x="1024" />

    
    <glyph glyph-name="fuzhi" unicode="&#58912;" d="M768 718.144c38.592 0 78.144-39.552 78.144-78.144v-680.256A79.36 79.36 0 0 0 768-118.4H87.744c-45.888 0-78.144 32.256-78.144 78.144V640a79.36 79.36 0 0 0 78.144 78.144H768z m9.6-758.4V640L768 649.6H87.744l-9.6-9.6v-680.256l9.6-9.6H768l9.6 9.6z m158.656 90.112h-34.304V118.4h34.304l9.6 9.6V808.256l-9.6 9.6H256l-9.6-9.6v-34.304H177.856v34.304A79.36 79.36 0 0 0 256 886.4h680.256c45.888 0 78.144-32.256 78.144-78.144V128a79.36 79.36 0 0 0-78.144-78.144zM542.656 393.6h-236.8V462.144h236.8V393.6z"  horiz-adv-x="1024" />

    
    <glyph glyph-name="fenxiang" unicode="&#58913;" d="M395.328 307.008l4.224-12.352 286.784-154.752 12.16 2.56a157.696 157.696 0 0 0 208 37.504 162.176 162.176 0 0 0 61.12-205.056 158.336 158.336 0 0 0-193.92-85.248 161.28 161.28 0 0 0-106.24 185.216l-4.8 10.304-300.16 161.92-11.072-1.344a183.296 183.296 0 0 0-257.536 7.68 189.056 189.056 0 0 0 0 261.056 183.296 183.296 0 0 0 257.536 7.68l11.072-1.408 300.16 162.048 4.8 10.304A161.28 161.28 0 0 0 773.76 878.336a158.336 158.336 0 0 0 193.856-85.248 162.176 162.176 0 0 0-61.056-205.056 157.696 157.696 0 0 0-208.064 37.568l-12.16 2.56-286.72-154.816-4.224-12.352c10.688-23.936 16.32-50.048 16.32-76.992 0-26.88-5.632-52.928-16.32-76.992z m-229.12-35.264a125.44 125.44 0 0 1 155.008 27.392v-9.216l18.176 36.352A128.448 128.448 0 0 1 284.8 497.28a125.632 125.632 0 0 1-169.792-53.44 128.512 128.512 0 0 1 51.136-172.096z m556.8-229.12c0-56 44.864-101.44 100.352-101.44 55.488 0 100.416 45.44 100.416 101.504 0 56-44.928 101.504-100.416 101.504s-100.416-45.44-100.416-101.504z m100.352 581.184c55.488 0 100.416 45.44 100.416 101.504 0 56.064-44.928 101.504-100.416 101.504s-100.416-45.44-100.416-101.504c0-56 44.928-101.504 100.48-101.504z"  horiz-adv-x="1024" />

    
    <glyph glyph-name="erweima1" unicode="&#58914;" d="M451.136 878.528v-433.664H12.8V851.52C12.8 869.888 26.112 883.2 44.48 883.2H448a54.912 54.912 0 0 1 3.2-4.672z m-63.36-370.24V826.176H69.76v-317.888h317.888zM576 878.528A54.912 54.912 0 0 1 579.2 883.2h403.456c18.304 0 31.68-13.312 31.68-31.68V444.8H576V878.528z m63.36-370.24h317.952V826.176H639.36v-317.888zM197.12 703.232c0.64 0.64 1.28 1.344 1.792 2.048H266.88V629.12h-69.76V703.232z m632.896 0v-74.048h-69.76V705.28h67.904l1.856-2.048z m-378.88-811.2H44.48c-17.6 0-31.68 12.672-31.68 25.28V323.968h438.336v-432z m-63.36 56.96V266.944H69.76v-317.952h317.888zM190.72 79.424v72.96H266.88v-76.096H195.52a33.408 33.408 0 0 1-4.8 3.136z m813.248-3.136h-254.016v146.176H622.72v-336.832h-63.36V323.968h253.952v-190.656h127.36V323.968h63.36v-247.68z m-182.912-132.928l-1.344-57.728h-63.36v63.488-0.128h61.824l2.88-5.632z m182.912-57.728h-63.424 0.064v63.36h-0.064 0.064v0.128-0.128h63.36v-63.36z"  horiz-adv-x="1024" />

    
    <glyph glyph-name="gengduo" unicode="&#58915;" d="M932.8 660.48a503.36 503.36 0 0 0 65.92-381.312c-51.392-228.544-258.816-394.496-493.056-394.496a509.44 509.44 0 0 0-210.368 45.76 35.456 35.456 0 0 0-18.688 19.968 35.456 35.456 0 0 0 0.896 27.52 36.48 36.48 0 0 0 47.36 17.664 437.44 437.44 0 0 1 180.544-39.296c201.088 0 379.2 142.528 423.424 338.688a431.104 431.104 0 0 1-56.512 327.296 431.104 431.104 0 0 1-271.488 191.552A429.12 429.12 0 0 1 505.6 824.512c-201.088 0-379.2-142.464-423.424-338.688a433.728 433.728 0 0 1 106.752-392.192 35.84 35.84 0 0 0-1.664-50.624 36.8 36.8 0 0 0-50.56 1.728A505.28 505.28 0 0 0 12.352 501.504C64 730.112 271.232 896 505.344 896c37.376 0 74.816-4.224 111.36-12.48a502.592 502.592 0 0 0 316.096-222.976zM633.984 354.944l-189.632-169.856a38.848 38.848 0 0 0-50.56 0.064 27.52 27.52 0 0 0-0.064 41.984l158.08 141.632v14.272l-157.952 141.44a27.648 27.648 0 0 0-0.128 42.176 38.848 38.848 0 0 0 50.688 0l189.44-169.6a27.648 27.648 0 0 0 0.128-42.112z"  horiz-adv-x="1024" />

    
    <glyph glyph-name="guanbi" unicode="&#58916;" d="M582.314667 392.328533v-15.496533l435.268266-435.336533a17.885867 17.885867 0 0 0 0-25.258667l-37.819733-37.819733a17.885867 17.885867 0 0 0-25.258667 0L519.168 313.685333h-15.496533L68.266667-121.582933a17.885867 17.885867 0 0 0-25.258667 0l-37.819733 37.819733a17.885867 17.885867 0 0 0 0 25.258667l435.268266 435.336533v15.496533L5.256533 827.733333a17.885867 17.885867 0 0 0 0 25.258667L43.008 890.743467a17.885867 17.885867 0 0 0 25.258667 0l435.336533-435.268267h15.496533L954.504533 890.743467a17.885867 17.885867 0 0 0 25.258667 0l37.819733-37.819734a17.885867 17.885867 0 0 0 0-25.258666L582.314667 392.328533z"  horiz-adv-x="1024" />

    
    <glyph glyph-name="huazhuan" unicode="&#58917;" d="M679.104 331.136l1.728 1.664c16.896-0.832 29.568-14.08 29.568-31.36 0-17.792-13.44-31.232-31.36-31.232H554.88l-9.6-9.6v-96.192a30.72 30.72 0 0 0-31.36-31.36 30.592 30.592 0 0 0-31.232 31.36V258.816l-9.6 9.6H348.608a31.04 31.04 0 0 0-22.4 9.024 30.208 30.208 0 0 0-8.832 22.016c0 18.112 13.504 31.68 31.232 31.68h124.416l9.6 9.6v55.168l-9.6 9.6H348.608a31.04 31.04 0 0 0-22.4 9.024 30.208 30.208 0 0 0-8.832 22.08 30.72 30.72 0 0 0 31.232 31.552h120.96L355.392 582.4c-13.184 13.248-13.44 26.048 1.024 46.4 2.304 2.816 6.848 2.368 15.616-3.328 8.32-5.504 17.536-14.208 28.16-25.984l109.504-86.528h11.904l108.352 85.376c6.4 6.4 9.344 9.28 12.48 12.288 6.144 5.824 11.328 10.24 16.128 13.44 8.96 6.016 14.08 6.72 17.216 3.52 17.792-19.008 16.64-28.544 0-45.184L578.112 484.544l-16.32-16.384h117.248a30.72 30.72 0 0 0 31.36-31.36 30.4 30.4 0 0 0-8.96-22.272 31.04 31.04 0 0 0-22.272-9.024H554.88l-9.6-9.6v-55.168l9.6-9.6h124.288zM56.832 266.88c6.272-7.168 51.968-66.944 61.632-79.168a40.512 40.512 0 0 1 6.4-8.576l1.536-1.6c2.24-2.432 3.008-3.584 3.264-4.672 13.952-20.416 26.56-38.4 38.72-56.064 7.296-10.624 12.8-18.816 15.872-23.424a432.448 432.448 0 0 1 327.808-148.48 438.08 438.08 0 0 1 387.008 232.96 30.976 30.976 0 0 0 58.24-14.912 27.392 27.392 0 0 0-6.592-17.088l-13.504-15.808h6.016a503.68 503.68 0 0 0-432.96-247.808c-142.528 0-274.368 59.776-369.536 164.16l-14.08 0.064-28.48-30.272c-2.688-4.48-18.944-37.248-22.464-42.688-3.84-5.888-6.4-7.68-9.6-7.68-3.2 0-3.392 0.32-5.184 12.608l-1.92 14.08a450.048 450.048 0 0 1-3.008 18.816l-12.288 230.208c-2.432 25.408-0.704 35.84-0.448 37.952 1.728-0.128 7.744-5.44 13.568-12.608z m924.032 222.208c-1.728 0.128-7.488 5.184-13.44 12.352a9179.52 9179.52 0 0 1-61.376 83.456l-0.384 0.512-44.16 59.648-20.096 27.072a432.64 432.64 0 0 1-327.616 148.032c-163.392 0-310.464-91.2-387.52-234.368l-2.368-1.28a32.32 32.32 0 0 0-25.792-15.232 31.04 31.04 0 0 0-22.4 9.024 30.208 30.208 0 0 0-8.832 22.08c0 3.84 1.28 9.472 2.56 11.904C156.672 780.032 326.08 886.4 513.856 886.4c142.528 0 274.368-59.84 369.664-164.16l14.08-0.128 28.352 30.272c2.752 4.544 18.88 37.184 22.4 42.624 3.84 5.888 6.4 7.68 9.664 7.68 3.264 0 3.456-0.256 5.184-12.48l1.92-14.08c0.96-6.72 1.92-12.608 3.008-18.88l12.288-230.208c2.432-25.408 0.768-35.84 0.512-37.632v-0.32z"  horiz-adv-x="1024" />

    
    <glyph glyph-name="sousuo" unicode="&#58918;" d="M814.272 139.392l0.512-13.12 189.568-187.52a33.6 33.6 0 0 0 0-47.424 39.744 39.744 0 0 0-25.536-9.728 34.112 34.112 0 0 0-24.064 9.728l-189.312 188.48-12.736 0.768a458.56 458.56 0 0 0-285.696-99.072c-251.84 0-457.408 202.944-457.408 452.48C9.6 683.392 215.168 886.4 467.008 886.4s457.344-202.944 457.344-452.48c0-109.568-39.424-213.12-110.08-294.528zM467.008 819.584c-214.72 0-389.632-172.672-389.632-385.664 0-212.032 175.36-385.6 389.632-385.6 215.36 0 391.04 173.312 391.04 385.6 0 213.248-175.168 385.664-391.04 385.664z"  horiz-adv-x="1024" />

    
    <glyph glyph-name="qiehuan" unicode="&#58919;" d="M438.848 414.08H36.544a33.6 33.6 0 0 0-33.344 33.984V856.576c0 18.752 14.912 33.92 33.344 33.92h402.304c18.432 0 33.408-15.168 33.408-33.92 0-18.816-14.976-33.92-33.408-33.92H73.152l-3.2-337.472 332.352-3.2 3.2 207.488c0 18.752 14.912 33.92 33.344 33.92 18.432 0 33.408-15.168 33.408-33.92V448c0-18.688-14.976-33.92-33.408-33.92z m548.608-229.12c18.432 0 33.344-15.168 33.344-33.92v-241.408c0-18.816-14.912-33.92-33.344-33.92H585.152a33.6 33.6 0 0 0-33.408 33.92V318.08c0 18.816 14.976 33.92 33.408 33.92h402.304c18.432 0 33.344-15.104 33.344-33.92 0-18.752-14.912-33.92-33.344-33.92H621.696l-3.2-337.408 332.352-3.2 3.2 207.424c0 18.816 14.912 33.92 33.408 33.92zM3.2 243.904c0 18.688 14.848 33.792 33.28 33.792 4.032-0.064 10.432-1.28 16.704-4.544 10.368-5.44 16.512-14.912 16.512-29.824v-91.968c0-73.216 58.56-132.544 130.752-132.544h114.304l-10.56 18.432a33.28 33.28 0 0 0 0 46.464 32 32 0 0 0 45.632 0l12.096-11.392 26.496-24.96 38.016-36.096c10.112-10.24 12.288-25.792 5.76-38.784a33.728 33.728 0 0 0-7.296-11.52l-37.888-37.952-37.952-38.016a32.96 32.96 0 0 0-47.04 0 34.304 34.304 0 0 0 0 47.808l12.928 13.12-114.688 5.44c-108.8 0-197.056 89.6-197.056 200.128v92.416z m1017.6 278.4c0-18.752-14.976-33.92-33.344-33.92a39.552 39.552 0 0 0-16.832 4.48c-10.432 5.504-16.576 14.976-16.576 30.016V615.168c0 73.6-58.688 133.184-131.2 133.184h-114.752l10.56-18.432a33.28 33.28 0 0 0 0-46.72 31.872 31.872 0 0 0-45.76 0l-12.16 11.52-26.624 25.152c-22.4 21.12-36.544 34.56-38.208 36.224a33.92 33.92 0 0 0-5.824 39.04c0.64 1.536 17.152 19.264 40.32 43.392L631.488 839.68l28.864 29.824 13.12 13.44a32.896 32.896 0 0 0 47.104 0 34.432 34.432 0 0 0 0-48.064l-12.928-13.12 115.2-5.44c109.312 0 197.952-90.048 197.952-201.088v-92.8z"  horiz-adv-x="1024" />

    
    <glyph glyph-name="lianjie" unicode="&#58920;" d="M258.591676 149.91726a36.027497 36.027497 0 0 0 0 50.937633l388.751406 388.623422a36.027497 36.027497 0 0 0 50.937633-51.001625l-388.687414-388.55943a35.963505 35.963505 0 0 0-50.937633 0z m453.255343 92.72441a36.027497 36.027497 0 0 0-25.532808 61.432321l189.672291 189.672291c36.539433 36.539433 56.632921 85.109361 56.696913 136.686914a191.976003 191.976003 0 0 1-56.696913 136.750906 193.319835 193.319835 0 0 1-133.35933 57.144857l-5.055368-0.63992a190.312211 190.312211 0 0 1-135.023123-56.504937L412.87639 577.511811a36.027497 36.027497 0 0 0-50.937632 51.001625l189.672291 189.608299a258.911636 258.911636 0 0 0 184.296962 77.174353l5.055369 0.703912a263.455068 263.455068 0 0 0 186.024746-77.878265A263.583052 263.583052 0 0 0 1004.738408 630.433196a263.647044 263.647044 0 0 0-77.750282-187.624547l-189.67229-189.672291a35.963505 35.963505 0 0 0-25.468817-10.494688zM265.374828-108.8024a263.711036 263.711036 0 0 0-187.688539 77.750282 265.75878 265.75878 0 0 0 0 375.377077l189.672291 189.608299a36.027497 36.027497 0 1 0 51.001625-50.937632L128.623922 293.323335a193.575803 193.575803 0 0 1 0-273.437821c36.539433-36.475441 85.109361-56.632921 136.750906-56.632921 51.641545 0 100.211474 20.15748 136.750906 56.696913l189.672291 189.608299a36.027497 36.027497 0 1 0 50.937633-50.937633L453.127359-31.052118A263.647044 263.647044 0 0 0 265.374828-108.8024z"  horiz-adv-x="1024" />

    
    <glyph glyph-name="wancheng" unicode="&#58921;" d="M932.8 660.48a503.36 503.36 0 0 0 65.92-381.312c-51.392-228.544-258.816-394.496-493.056-394.496a509.44 509.44 0 0 0-210.368 45.76 35.456 35.456 0 0 0-18.688 19.968 35.456 35.456 0 0 0 0.896 27.52 36.48 36.48 0 0 0 47.36 17.664 437.44 437.44 0 0 1 180.544-39.296c201.088 0 379.2 142.528 423.424 338.688a431.104 431.104 0 0 1-56.512 327.296 431.104 431.104 0 0 1-271.488 191.552A429.12 429.12 0 0 1 505.6 824.512c-201.088 0-379.2-142.464-423.424-338.688a433.728 433.728 0 0 1 106.752-392.192 35.84 35.84 0 0 0-1.664-50.624 36.8 36.8 0 0 0-50.56 1.728A505.28 505.28 0 0 0 12.352 501.504C64 730.112 271.232 896 505.344 896c37.376 0 74.816-4.224 111.36-12.48a502.592 502.592 0 0 0 316.096-222.976z m-174.144-136.576L487.488 264.96a33.024 33.024 0 0 0-45.184 0L329.344 372.864a29.568 29.568 0 0 0 0 43.136 32.96 32.96 0 0 0 45.184 0L464.896 329.6l248.576 237.44a33.024 33.024 0 0 0 45.184 0 29.568 29.568 0 0 0 0-43.2z"  horiz-adv-x="1024" />

    
    <glyph glyph-name="xiala" unicode="&#58922;" d="M902.712889-98.645333l11.036444-0.227556c16.611556-3.754667 40.96 8.988444 66.332445 34.588445l790.072889 802.247111a77.141333 77.141333 0 0 1 0 107.633777 73.841778 73.841778 0 0 1-104.903111 0.227556L909.312 60.984889l-20.48 21.390222L155.420444 845.596444a73.955556 73.955556 0 0 1-105.130666 0 77.141333 77.141333 0 0 1 0-107.633777l786.659555-800.768c32.654222-28.330667 50.403556-38.343111 65.763556-35.84z"  horiz-adv-x="1820" />

    
    <glyph glyph-name="yingpan" unicode="&#58925;" d="M950.144 888.512c36.672 0 66.752-29.952 66.752-66.56v-875.968c0-36.608-30.08-66.56-66.752-66.56H73.856a66.88 66.88 0 0 0-66.752 66.56V821.952c0 36.608 30.08 66.56 66.752 66.56h876.288z m6.4-905.856V785.664a43.008 43.008 0 0 1-43.008 42.88h-111.168l-6.4-6.4V457.6c0-36.544-30.08-66.56-66.752-66.56H291.84a66.88 66.88 0 0 0-66.752 66.56V822.144l-6.4 6.4H110.464a43.008 43.008 0 0 1-43.008-42.88V-17.28c0.064-23.68 19.264-42.816 43.008-42.88h803.072c23.68 0 43.008 19.328 43.008 42.88zM285.44 822.144v-327.872c0-23.68 19.2-42.88 42.944-42.88h364.288c23.68 0 42.944 19.264 42.944 42.88V822.144l-6.4 6.4H291.84l-6.4-6.4zM545.664 535.68a30.208 30.208 0 0 0-30.208 30.08V711.808a30.208 30.208 0 0 0 60.352 0v-145.92c0-16.576-13.568-30.08-30.144-30.08z"  horiz-adv-x="1024" />

    
    <glyph glyph-name="xiazai" unicode="&#58926;" d="M493.226667 24.234667l17.544533-18.0224V245.76c0 20.206933 15.837867 36.4544 35.293867 36.4544 19.456 0 35.293867-16.247467 35.293866-36.4544v-239.342933l76.253867 78.2336a34.338133 34.338133 0 0 0 49.629867 0c13.994667-14.336 13.994667-37.546667 0.068266-51.677867l-133.802666-137.352533a35.498667 35.498667 0 0 0-24.098134-13.243734c-1.6384-0.136533-1.6384-0.136533-3.345066-0.136533a34.952533 34.952533 0 0 0-24.917334 10.6496l-136.533333 140.0832a37.205333 37.205333 0 0 0 0 51.677867 34.338133 34.338133 0 0 0 49.698133 0l58.914134-60.416z m338.602666 601.224533l-20.821333 1.2288-8.874667 19.319467C755.438933 747.3152 654.9504 812.8512 546.133333 812.8512c-108.9536 0-209.442133-65.536-256.068266-166.843733l-8.874667-19.319467-20.6848-1.365333c-100.898133-6.690133-179.746133-92.9792-179.746133-196.4032C80.759467 320.3072 166.980267 231.765333 273.066667 231.765333c19.456 0 35.362133-16.247467 35.362133-36.4544A35.908267 35.908267 0 0 0 273.066667 158.72C128.2048 158.72 10.24 279.825067 10.24 428.782933c0 132.164267 94.208 245.077333 220.501333 266.24l7.304534 5.12C300.509867 814.148267 419.0208 885.76 546.065067 885.76c126.976 0 245.5552-71.543467 308.224-185.412267l7.236266-5.12c126.293333-21.162667 220.501333-134.144 220.501334-266.308266 0-148.957867-117.9648-269.994667-262.826667-269.994667a35.908267 35.908267 0 0 0-35.362133 36.4544c0 20.2752 15.906133 36.522667 35.362133 36.522667 106.0864 0 192.3072 88.4736 192.3072 197.085866 0 103.424-78.916267 189.781333-179.677867 196.471467z"  horiz-adv-x="1092" />

    
    <glyph glyph-name="zhuanrang" unicode="&#58927;" d="M632.128 656.32l151.808-151.808c0.64-1.152 0.64-1.152 1.984-2.752a31.36 31.36 0 0 0 12.16-24 30.912 30.912 0 0 0-30.848-30.848H255.616a30.784 30.784 0 0 0 0 61.632h437.312l-104.32 104.32a30.72 30.72 0 1 0 43.52 43.52z m135.104-397.824H328.768l105.6-107.84a32.384 32.384 0 0 0 0-44.928 30.208 30.208 0 0 0-43.392 0l-152.32 155.52-0.64 1.088V262.4c-0.64 1.216-0.64 1.216-1.792 2.944a32.768 32.768 0 0 0-11.264 23.872c0 16.96 13.76 30.784 30.72 30.784h511.552c17.024 0 30.848-13.824 30.848-30.784s-13.888-30.784-30.848-30.784z m169.28 393.92a500.096 500.096 0 0 0 65.536-378.88c-51.136-227.072-257.216-391.936-489.984-391.936a506.24 506.24 0 0 0-209.024 45.44 32.256 32.256 0 0 0-17.024 18.24 32.192 32.192 0 0 0 0.832 24.96 33.28 33.28 0 0 0 43.072 16.128 440.704 440.704 0 0 1 181.888-39.552c202.56 0 382.016 143.488 426.56 341.12a434.176 434.176 0 0 1-56.96 329.728 434.304 434.304 0 0 1-273.472 192.896A432.384 432.384 0 0 1 512 821.312c-202.496 0-381.952-143.488-426.496-341.12a436.864 436.864 0 0 1 107.52-395.072 32.64 32.64 0 0 0-1.472-46.08 33.6 33.6 0 0 0-46.08 1.6 501.952 501.952 0 0 0-123.52 453.76C73.088 721.664 279.168 886.4 511.744 886.4c37.12 0 74.368-4.16 110.592-12.416a499.392 499.392 0 0 0 314.176-221.568z"  horiz-adv-x="1024" />

    
    <glyph glyph-name="bianji" unicode="&#58928;" d="M955.392 472.96c0 16.256 12.8 29.44 28.224 29.44 15.36 0 28.16-13.12 28.16-29.312v-435.136c0-99.392-63.04-159.552-154.496-159.552H160.96C72.704-121.6 6.4-53.248 6.4 64.896V756.928C6.4 838.4 82.112 889.6 160.896 889.6h462.144a28.8 28.8 0 0 0 28.16-29.376 28.8 28.8 0 0 0-28.16-29.312H164.416c-18.816 0-30.72-1.088-44.8-5.952-35.776-12.352-56.832-43.904-56.832-100.352V70.4c7.68-80.256 51.712-133.12 103.36-133.12h685.888c47.808 0 103.36 44.736 103.36 106.176v429.44z m-631.04-147.84c0.64 1.024 0.832 1.536 1.024 1.92L825.984 844.736c13.76 14.08 32.384 21.824 52.736 21.824 23.296 0 46.72-10.24 64.064-28.224l47.36-49.088c17.472-17.92 27.456-42.24 27.456-66.56 0-21.184-7.552-40.576-21.248-54.784l-501.504-518.464a1.728 1.728 0 0 0-0.832-0.512 328.704 328.704 0 0 1-1.088 0.192l-189.312-53.12a25.408 25.408 0 0 0-24.832 6.72 27.968 27.968 0 0 0-6.592 26.24l51.52 195.2 0.64 0.96z m632.128 384.64a26.56 26.56 0 0 1 7.232 18.56 33.6 33.6 0 0 1-9.6 23.04l-47.36 49.088c-11.328 11.712-30.528 13.184-40.96 2.304l-49.088-50.688-0.064-8.896 80.768-84.8h9.216l49.856 51.456zM403.712 316.16l81.472-84.16h9.216l361.152 373.44V614.4l-80.704 84.864h-9.216L403.712 325.12v-8.96z m-59.584-153.408l95.872 27.136 2.88 10.624-69.76 72.064-10.752-2.816-26.176-99.2 7.936-7.808z"  horiz-adv-x="1024" />

    
    <glyph glyph-name="zhongxin" unicode="&#58929;" d="M942.272 96.704l0.32 0.448 0.32 0.448-10.88 6.72a40.512 40.512 0 0 0-5.632-8.256A504.64 504.64 0 0 0 17.152 483.072a38.656 38.656 0 0 0 15.872 23.104 38.08 38.08 0 0 0 52.928-9.344l127.424-182.016 0.448-0.576a38.016 38.016 0 1 0-62.72-43.136l-54.208 77.44-11.584-4.224a428.544 428.544 0 0 1 781.568-200.64 38.592 38.592 0 0 0 30.976 15.488 38.016 38.016 0 0 0 33.728-55.68l0.32 0.64 10.368-7.424zM108.544 623.488a38.016 38.016 0 0 0-7.424 53.248 504.64 504.64 0 0 0 906.24-389.504 38.784 38.784 0 0 0-16.384-25.344l-2.688-5.312c-14.528-6.784-38.208-2.56-50.24 14.592l-127.488 182.016-0.384 0.64a38.016 38.016 0 1 0 62.72 43.072l54.208-77.44 11.584 4.224a428.544 428.544 0 0 1-778.24 205.44 38.144 38.144 0 0 0-51.84-5.632z"  horiz-adv-x="1024" />

    
    <glyph glyph-name="jieshou" unicode="&#58930;" d="M1085.44 49.9712c0-96.119467-74.9568-174.08-167.253333-174.08h-750.933334C75.025067-124.1088 0-46.08 0 49.9712v496.981333c0 17.749333 13.789867 32.085333 30.72 32.085334s30.72-14.336 30.72-32.085334v-496.981333c0-60.552533 47.445333-109.909333 105.813333-109.909333h750.933334c58.368 0 105.813333 49.3568 105.813333 109.909333v496.981333c0 17.749333 13.789867 32.085333 30.72 32.085334s30.72-14.336 30.72-32.085334v-496.981333zM415.470933 814.762667l-1.911466 0.2048c-12.4928 1.570133-22.7328 14.5408-22.7328 30.72 0 16.247467 10.24 29.149867 22.7328 30.72l1.2288 0.136533H664.917333V878.045867l1.8432-1.6384 2.594134 0.136533c13.653333 0 25.326933-13.312 25.326933-30.9248 0-17.408-11.810133-30.788267-25.326933-30.788267-1.365333 0-1.365333 0-2.594134 0.136534l-17.2032 2.116266v-2.321066H415.470933zM542.651733 78.848a26.350933 26.350933 0 0 0-19.0464 8.192L242.346667 380.177067c-7.3728 7.645867-8.260267 5.461333 1.365333 5.461333h85.469867a59.050667 59.050667 0 0 1 58.094933 59.8016V712.362667c0 16.1792 12.424533 29.149867 27.306667 29.149866h256.273066c14.882133 0 27.306667-12.970667 27.306667-29.149866V445.44c0-32.768 25.941333-59.8016 58.094933-59.8016h85.333334c9.762133 0 8.874667 2.2528 1.501866-5.461333l-281.258666-293.0688a26.350933 26.350933 0 0 0-19.114667-8.192z m0.068267 69.768533l175.9232 183.5008-16.7936 9.8304a119.1936 119.1936 0 0 0-58.436267 103.492267V683.281067H441.821867V445.44a119.1936 119.1936 0 0 0-58.436267-103.424l-16.861867-9.8304 176.196267-183.432533z"  horiz-adv-x="1092" />

    
    <glyph glyph-name="fasong" unicode="&#58931;" d="M1153.125019-101.679425c-56.314932-51.400174-129.421952-24.061834-129.421952 52.014519v123.892849c0 7.7817-8.498435 15.358618-20.170985 15.358618H116.520713C53.038427 89.688952 0 137.71023 0 198.223184v371.678549c0 60.615345 52.833645 108.534232 116.520713 108.534232h887.011369c11.672549 0 20.170985 7.576918 20.170985 15.358617V817.585041c0 76.076353 73.10702 103.414693 129.421952 52.014519l450.007499-407.924887c22.525973-20.273375 35.22243-48.32845 35.120039-77.612215 0-29.488546-12.696457-57.543621-35.120039-77.816996l-450.007499-407.924887z m384.170224 475.809977A13.208411 13.208411 0 0 1 1541.902829 383.960068a13.10602 13.10602 0 0 1-4.607586 9.727124l-417.242448 378.026778v-78.124169c0-60.512954-52.936036-108.534232-116.520713-108.534232H116.520713c-11.77494 0-20.170985-7.576918-20.170984-15.358618v-371.678549c0-7.679309 8.498435-15.358618 20.170984-15.358617h887.011369c63.584677 0 116.520713-47.918887 116.520713-108.534232v-78.22656l417.242448 378.129168z"  horiz-adv-x="1638" />

    
    <glyph glyph-name="liebiao" unicode="&#58933;" d="M438.336 891.328v-433.664H0V864.32C0 882.688 13.312 896 31.68 896H435.2a54.912 54.912 0 0 1 3.2-4.672z m-63.36-370.24V838.976H56.96v-317.888h317.888zM576 891.328A54.912 54.912 0 0 1 579.2 896h403.456c18.304 0 31.68-13.312 31.68-31.68V457.6H576V891.328z m63.36-370.24h317.952V838.976H639.36v-317.888zM576-113.664V320h438.336v-406.656a30.656 30.656 0 0 0-31.68-31.68H579.2a54.912 54.912 0 0 1-3.2 4.672z m63.36 370.304v-317.952h317.952V256.64H639.36zM438.4-112H31.68c-17.6 0-31.68 12.8-31.68 25.344V320h438.336v-432z m-63.36 57.088V262.976H56.96v-317.888h317.888z"  horiz-adv-x="1024" />

    
    <glyph glyph-name="icon" unicode="&#58934;" d="M224.182857 122.514286a32.841143 32.841143 0 0 0-25.526857 53.394285l355.986286 438.345143a32.914286 32.914286 0 0 0 25.234285 12.141715h0.292572c9.654857 0 18.870857-4.242286 25.088-11.702858l368.64-438.418285a32.694857 32.694857 0 0 0-19.382857-53.321143 32.914286 32.914286 0 0 0-30.866286 11.264l-343.04 407.990857-330.898286-407.552a32.768 32.768 0 0 0-25.6-12.141714zM582.729143 141.897143a32.914286 32.914286 0 0 0-25.088 11.702857l-368.64 438.345143a32.914286 32.914286 0 0 0 50.249143 42.130286l343.04-407.990858 330.898285 407.552a32.841143 32.841143 0 0 0 51.053715-41.252571l-355.986286-438.418286a32.914286 32.914286 0 0 0-25.234286-12.141714h-0.292571zM1010.541714 580.242286a157.842286 157.842286 0 0 0-157.842285 157.476571 157.842286 157.842286 0 0 0 315.611428 0 157.842286 157.842286 0 0 0-157.769143-157.476571z m0 249.417143a92.16 92.16 0 0 1-92.16-91.940572 92.16 92.16 0 0 1 184.32 0 92.16 92.16 0 0 1-92.16 92.013714zM158.72 580.315429A157.842286 157.842286 0 0 0 0.877714 737.718857a157.842286 157.842286 0 0 0 315.611429 0A157.842286 157.842286 0 0 0 158.72 580.242286z m0 249.417142A92.16 92.16 0 0 1 66.56 737.792a92.16 92.16 0 0 1 184.32 0A92.16 92.16 0 0 1 158.72 829.732571z m853.723429-956.635428a157.842286 157.842286 0 0 0-157.842286 157.476571 157.842286 157.842286 0 0 0 315.611428 0 157.842286 157.842286 0 0 0-157.842285-157.476571z m0 249.417143a92.16 92.16 0 0 1-92.16-91.940572 92.16 92.16 0 0 1 184.32 0 92.16 92.16 0 0 1-92.16 92.013715z m-851.821715-249.417143a157.842286 157.842286 0 0 0-157.842285 157.476571 157.842286 157.842286 0 0 0 315.611428 0 157.842286 157.842286 0 0 0-157.769143-157.476571z m0 249.417143a92.16 92.16 0 0 1-92.16-91.940572 92.16 92.16 0 0 1 184.32 0 92.16 92.16 0 0 1-92.16 92.013715z"  horiz-adv-x="1170" />

    
    <glyph glyph-name="liebiao1" unicode="&#58935;" d="M67.392 896h889.216c23.616 0 35.392-11.712 35.392-35.136v-0.896c0-23.424-11.776-35.2-35.392-35.2H67.392C43.776 824.832 32 836.608 32 860.032V860.8C32 884.288 43.776 896 67.392 896z m0-448h889.216c23.616 0 35.392-11.712 35.392-35.136v-0.896c0-23.424-11.776-35.2-35.392-35.2H67.392c-23.616 0-35.392 11.776-35.392 35.2V412.8C32 436.288 43.776 448 67.392 448z m0-448h889.216c23.616 0 35.392-11.712 35.392-35.136v-0.896c0-23.424-11.776-35.2-35.392-35.2H67.392c-23.616 0-35.392 11.776-35.392 35.2v0.896C32-11.712 43.776 0 67.392 0z"  horiz-adv-x="1024" />

    
    <glyph glyph-name="shanchu" unicode="&#58936;" d="M986.432 761.728c17.408 0 31.168-13.696 31.168-31.36a31.616 31.616 0 0 0-31.168-32.128h-112l-6.4-6.4v-678.848c0-74.368-58.816-134.592-131.2-134.592H287.168c-72.384 0-131.2 60.224-131.2 134.592V691.008l-6.4 6.4H37.632A31.616 31.616 0 0 0 6.4 729.6c0 17.792 13.952 32.128 31.232 32.128H275.2l6.4 6.4v38.528C281.6 852.352 317.952 889.6 362.432 889.6h299.968c44.416 0 80.768-37.248 80.768-82.944v-38.528l6.4-6.4h236.8z m-180.864-748.736V691.84l-6.4 6.4H224.832l-6.4-6.4v-678.848c0-38.72 30.784-70.336 68.736-70.336h449.664c37.952 0 68.736 31.616 68.736 70.4z m-462.336 793.6v-38.464l6.4-6.4h325.568l6.4 6.4v38.528a19.2 19.2 0 0 1-19.2 19.52H362.432a19.2 19.2 0 0 1-19.2-19.52zM512 71.04a31.616 31.616 0 0 0-31.168 32.128V513.152c0 17.792 13.952 32.128 31.168 32.128 17.28 0 31.168-14.336 31.168-32.128v-409.984A31.616 31.616 0 0 0 512 71.04z m-175.232 0c-16.448 0-30.528 14.464-31.168 32.384V513.152c0 17.792 13.952 32.128 31.168 32.128 17.28 0 31.232-14.336 31.232-32.128v-409.984a31.616 31.616 0 0 0-31.232-32.128z m350.464 0a31.616 31.616 0 0 0-31.232 32.128V513.152c0 17.792 13.952 32.128 31.232 32.128 17.216 0 31.168-14.336 31.168-32.128v-409.984a31.616 31.616 0 0 0-31.168-32.128z"  horiz-adv-x="1024" />

    
    <glyph glyph-name="resource" unicode="&#58937;" d="M497.302588 826.608941c28.672 12.649412 62.283294 10.842353 88.726588 0 22.528-9.276235 355.207529-152.033882 402.913883-172.574117 49.513412-21.323294 41.923765-58.428235 0-76.318118-41.923765-17.950118-372.856471-159.623529-398.878118-170.164706-35.779765-14.456471-64.271059-13.492706-92.762353-1.204706-25.840941 11.203765-380.205176 162.635294-412.310588 176.308706-32.165647 13.673412-31.864471 53.007059 0 66.861176 45.417412 19.757176 374.904471 160.587294 412.310588 177.091765zM129.807059 616.146824S503.567059 455.499294 519.830588 448.933647a54.211765 54.211765 0 0 1 44.754824 0c18.371765 7.770353 389.662118 167.273412 389.662117 167.273412L562.597647 784.504471c-9.035294 3.915294-30.659765 3.915294-39.755294 0L129.807059 616.146824zM978.341647 471.341176l18.974118-44.453647s-381.168941-163.358118-407.190589-173.778823c-35.779765-14.456471-64.210824-13.552941-92.762352-1.204706-25.780706 11.143529-409.961412 175.284706-409.961412 175.284706l18.432 44.15247s397.914353-170.345412 414.117647-176.850823a54.211765 54.211765 0 0 1 44.694588 0c18.432 7.710118 413.696 176.850824 413.696 176.850823z m0-154.322823l18.974118-44.513882s-381.168941-163.297882-407.190589-173.778824c-35.779765-14.456471-64.210824-13.552941-92.762352-1.204706-25.780706 11.203765-409.961412 175.284706-409.961412 175.284706l18.432 44.212706s397.914353-170.405647 414.117647-176.911059a54.211765 54.211765 0 0 1 44.694588 0c18.432 7.770353 413.696 176.911059 413.696 176.911059z m-0.180706-154.925177l18.974118-44.513882s-381.168941-163.297882-407.190588-173.778823c-35.779765-14.456471-64.271059-13.492706-92.762353-1.204706-25.840941 11.203765-410.021647 175.284706-410.021647 175.284706l18.492235 44.212705s397.854118-170.345412 414.057412-176.911058a54.211765 54.211765 0 0 1 44.754823 0c18.371765 7.770353 413.696 176.911059 413.696 176.911058z"  horiz-adv-x="1084" />

    
    <glyph glyph-name="qiehuan1" unicode="&#58939;" d="M898.833644 421.321359c98.163802-10.853995 172.708219-94.887124 172.913011-195.235378-0.204792-100.348254-74.749209-184.381383-172.981276-195.167114l-2.047923-2.32098h-19.591802c-2.32098 0-4.164111 0-8.055166-0.136528a181.241234 181.241234 0 0 0-7.167732-0.204793 58.434085 58.434085 0 0 0-6.416827 0.341321H323.162335L429.722624-59.735882c3.48147-2.867093 3.208414-8.191694-1.774867-12.697126l-34.200324-30.582325c-5.80245-5.256337-14.813314-5.870714-19.318745-2.116187l-158.441018 131.340163a83.760073 83.760073 0 0 0-18.772633 14.335465 55.976577 55.976577 0 0 0-15.42769 26.281685 86.490638 86.490638 0 0 0-2.047924 33.65421H877.193918a124.855072 124.855072 0 0 1 124.035903 125.605978c0 69.424608-55.498728 125.674241-124.035903 125.674241H217.284688l-2.252716-0.068264a181.17297 181.17297 0 0 0-12.424069 0.068264h-30.787118C75.363586 362.819009 0 448.285685 0 549.248316c0 101.030895 75.295322 186.429307 172.913011 197.488094h17.953463l3.549734 0.204792a429.108247 429.108247 0 0 0 67.513213-0.204792H722.575691L619.906457 840.189988c-3.822791 3.549734-3.754526 10.922259 1.092226 16.383388L651.444479 891.183284c4.778488 5.392865 11.809692 6.212035 15.564219 2.798829l158.372754-144.515138c2.935357-2.184452 6.758148-6.143771 10.717467-12.697126 9.215656-15.359427 13.448031-35.702134 9.693505-62.052084l-20.342707-0.136528c-17.953463-0.136528-43.893828-0.136528-77.274982-0.204792a117952.818828 117952.818828 0 0 0-399.072035 0.273056L222.541025 674.854293l-50.651976 0.068265c-59.048462-12.014485-101.235687-65.260497-101.235687-125.605978 0-60.482009 42.187225-113.796285 99.187764-125.537713l727.012858-0.204792 2.047924-2.252716z"  horiz-adv-x="1092" />

    
    <glyph glyph-name="send" unicode="&#58940;" d="M1088.853333 49.9712c0-96.119467-74.9568-174.08-167.253333-174.08h-750.933333c-92.296533 0-167.253333 77.960533-167.253334 174.08v496.981333c0 17.749333 13.789867 32.085333 30.72 32.085334s30.72-14.336 30.72-32.085334v-496.981333c0-60.552533 47.445333-109.909333 105.813334-109.909333h750.933333c58.368 0 105.813333 49.3568 105.813333 109.909333v496.981333c0 17.749333 13.789867 32.085333 30.72 32.085334s30.72-14.336 30.72-32.085334v-496.981333z m-669.969066 55.569067h234.018133v-2.389334l17.2032 2.116267 2.594133 0.2048c13.5168 0 25.326933-13.448533 25.326934-30.856533 0-17.544533-11.741867-30.9248-25.326934-30.9248-1.365333 0-1.365333 0-2.594133 0.2048l-1.8432-1.706667v1.501867H418.2016l-1.2288 0.2048c-12.4928 1.501867-22.7328 14.404267-22.7328 30.651733 0 16.247467 10.24 29.218133 22.7328 30.72l1.911467 0.273067zM546.065067 880.503467c7.236267 0 14.1312-2.935467 19.114666-8.192L846.506667 579.242667c7.509333-7.645867 8.328533-5.461333-1.365334-5.461334h-85.4016c-32.1536 0-58.094933-26.965333-58.094933-59.8016v-266.922666c0-16.1792-12.424533-29.149867-27.306667-29.149867H417.9968c-14.882133 0-27.306667 12.970667-27.306667 29.149867v266.922666a59.050667 59.050667 0 0 1-58.094933 59.869867H247.1936c-9.693867 0-8.874667-2.2528-1.4336 5.461333L527.018667 872.2432A26.350933 26.350933 0 0 0 546.133333 880.503467zM546.133333 810.8032L370.005333 627.3024l16.7936-9.8304c36.181333-21.162667 58.5728-60.6208 58.436267-103.424V276.138667h201.591467V513.911467a119.1936 119.1936 0 0 0 58.436266 103.492266l16.7936 9.8304L546.133333 810.8032z"  horiz-adv-x="1092" />

    
    <glyph glyph-name="shangchuan" unicode="&#58941;" d="M751.04 656.896a30.336 30.336 0 0 0-1.408-44.8 34.112 34.112 0 0 0-46.656 0L533.76 776.96v-482.048c0-17.28-14.72-31.616-32.704-31.616a32 32 0 0 0-32.768 31.616V776.96L299.072 612.16a34.112 34.112 0 0 0-46.656 0 31.36 31.36 0 0 0 0 44.736L478.336 876.992a34.112 34.112 0 0 0 46.72 0l225.92-220.096zM937.984 252.16c0 17.344 14.848 31.616 33.408 31.616a32 32 0 0 0 32.704-31.616v-332.48a32 32 0 0 0-32.704-31.616H32.704A32 32 0 0 0 0-80.32V252.16a32 32 0 0 0 32.704 31.616 32 32 0 0 0 32.768-31.616v-291.2l9.6-9.6h853.312l9.6 9.6v291.2z"  horiz-adv-x="1024" />

    
    <glyph glyph-name="wenjian" unicode="&#58942;" d="M1080.827941 694.286408c49.44104 0 89.374188-41.030212 89.374187-91.641454v-639.076637c0-50.464967-39.933148-91.495179-89.374187-91.495179H89.374188C40.079423-127.926862 0-86.969788 0-36.504821V804.577959C0 854.89665 39.933148 896 89.374188 896H447.602314l58.510107-75.916863h270.097278c49.221627 0 89.30105-40.957074 89.30105-91.422041v-34.374688h215.317192z m-304.764517 55.730876v0.146276H560.087994l43.004928-55.730877h193.668452v34.374688c0 11.702021-9.288479 21.209914-20.69795 21.209913z m325.68188-786.302692V602.718092c0 11.702021-9.288479 21.283051-20.771088 21.283051H569.961574L414.324691 825.787872H89.374188a21.063638 21.063638 0 0 1-20.771088-21.209913v-840.863367c0-11.702021 9.288479-21.209914 20.771088-21.209914H1080.974216c11.482608 0 20.771088 9.507892 20.771088 21.209914z m-306.666095 282.311263H620.13399v-178.821512c0-19.527748-15.358903-35.325477-34.374687-35.325477a34.813513 34.813513 0 0 0-34.374688 35.325477V246.025855H375.561746a34.813513 34.813513 0 0 0-34.374688 35.325477c0 19.527748 15.358903 35.325477 34.374688 35.325477h175.822869V496.375973c0 19.527748 15.358903 35.325477 34.374688 35.325477s34.374688-15.797729 34.374687-35.325477v-179.845439h174.945219c19.015785 0 34.374688-15.797729 34.374687-35.325477a34.959789 34.959789 0 0 0-34.374687-35.179202z"  horiz-adv-x="1170" />

    
    <glyph glyph-name="time" unicode="&#58944;" d="M742.4 817.28l9.6-9.6h162.88c37.184 0 67.456-29.76 67.52-66.304v-793.536c0-36.608-30.08-66.24-67.456-66.24H109.056c-17.92 0-35.136 7.04-47.808 19.456a65.6 65.6 0 0 0-19.648 46.784V741.376c0 36.608 30.08 66.24 67.456 66.24H272l9.6 9.6V856.64A30.08 30.08 0 0 0 312 886.4a30.08 30.08 0 0 0 30.4-29.76v-39.424l9.6-9.6h320l9.6 9.6V856.64a30.08 30.08 0 0 0 30.4 29.76 30.08 30.08 0 0 0 30.4-29.76v-39.424z m0-78.848v-39.36a30.08 30.08 0 0 0-30.4-29.76 30.08 30.08 0 0 0-30.4 29.76v39.36l-9.6 9.6H352l-9.6-9.6v-39.36a30.08 30.08 0 0 0-30.4-29.76 30.08 30.08 0 0 0-30.4 29.76v39.36l-9.6 9.6h-160l-9.6-9.6v-787.648l9.6-9.6h800l9.6 9.6V738.432l-9.6 9.6h-160l-9.6-9.6zM232 335.04h80a30.08 30.08 0 0 0 30.4-29.824 30.08 30.08 0 0 0-30.4-29.76h-80a30.08 30.08 0 0 0-30.4 29.76 30.08 30.08 0 0 0 30.4 29.824z m240 0h80a30.08 30.08 0 0 0 30.4-29.824 30.08 30.08 0 0 0-30.4-29.76h-80a30.08 30.08 0 0 0-30.4 29.76 30.08 30.08 0 0 0 30.4 29.824z m240 0h80a30.08 30.08 0 0 0 30.4-29.824 30.08 30.08 0 0 0-30.4-29.76h-80a30.08 30.08 0 0 0-30.4 29.76 30.08 30.08 0 0 0 30.4 29.824z m-480-157.568h80a30.08 30.08 0 0 0 30.4-29.76 30.08 30.08 0 0 0-30.4-29.824h-80a30.08 30.08 0 0 0-30.4 29.824 30.08 30.08 0 0 0 30.4 29.76z m240 0h80a30.08 30.08 0 0 0 30.4-29.76 30.08 30.08 0 0 0-30.4-29.824h-80a30.08 30.08 0 0 0-30.4 29.824 30.08 30.08 0 0 0 30.4 29.76zM121.6 511.744v59.52h780.8v-59.52H121.6z"  horiz-adv-x="1024" />

    
    <glyph glyph-name="more" unicode="&#58945;" d="M4579.328 896H5358.933333c78.506667 0 141.994667-63.488 141.994667-141.994667v-740.010666c0-78.506667-63.488-141.994667-141.994667-141.994667h-779.946666A141.994667 141.994667 0 0 0 4437.333333 13.994667V754.005333c0 78.506667 63.488 141.994667 141.994667 141.994667z m-4437.333333 0H921.6c78.506667 0 141.994667-63.488 141.994667-141.994667v-740.010666c0-78.506667-63.488-141.994667-141.994667-141.994667H141.994667A141.994667 141.994667 0 0 0 0 13.994667V754.005333C0 832.512 63.488 896 141.994667 896z m2198.528 0h780.288c78.506667 0 141.653333-63.488 141.653333-141.994667v-740.010666c0-78.506667-63.488-141.994667-141.653333-141.994667H2340.522667a141.994667 141.994667 0 0 0-141.653334 141.994667V754.005333c0 78.506667 63.488 141.994667 141.653334 141.994667z"  horiz-adv-x="5802" />

    
    <glyph glyph-name="xiazai2" unicode="&#58946;" d="M751.016248 101.390964a30.332986 30.332986 0 0 1-1.40786 44.795549 34.10861 34.10861 0 0 1-46.651364 0L533.757838-18.661106V463.402989c0 17.278283-14.718537 31.612858-32.700751 31.612859a31.99682 31.99682 0 0 1-32.764744-31.612859v-482.064095l-169.199185 164.847619a34.10861 34.10861 0 0 1-46.651364 0 31.356884 31.356884 0 0 1 0-44.795549l225.897551-220.07413a34.10861 34.10861 0 0 1 46.715358 0l225.897551 220.138124zM937.941672 506.086748c0-17.278283 14.846525-31.612858 33.40468-31.612859a31.99682 31.99682 0 0 1 32.700751 31.612859V838.533711a31.99682 31.99682 0 0 1-32.700751 31.612858H32.751625A31.99682 31.99682 0 0 1 0.050875 838.533711v-332.446963a31.99682 31.99682 0 0 1 32.70075-31.612859 31.99682 31.99682 0 0 1 32.764744 31.612859v291.171065l9.599046 9.599046h853.227211l9.599046-9.599046v-291.171065z"  horiz-adv-x="1024" />

    
    <glyph glyph-name="DAT" unicode="&#58947;" d="M978.346667 173.994667l-282.624-297.045334v0.170667H126.976a84.138667 84.138667 0 0 0-83.626667 84.48V811.52c0 46.592 37.546667 84.48 83.626667 84.48h767.744c46.08 0 83.541333-37.888 83.541333-84.48l0.085334-637.44z m-285.013334-193.109334l187.733334 195.413334-141.482667 0.853333-2.816 0.085333c-25.514667 0-42.752-19.626667-44.032-50.005333l0.512-146.346667z m-566.357333-31.317333v-0.170667h496.213333l-2.133333 178.517334v0.853333c2.218667 70.144 50.858667 121.173333 115.712 121.173333 2.133333 0 4.096 0 6.144-0.256l163.84-2.304V811.52A12.117333 12.117333 0 0 1 894.634667 823.466667H126.976a12.117333 12.117333 0 0 1-11.946667-12.117334v-849.749333c0-6.656 5.376-12.117333 11.946667-12.117333zM167.850667 640H271.36c25.258667 0 47.786667-5.290667 67.413333-15.872 19.626667-10.666667 34.816-25.6 45.653334-45.056 10.837333-19.370667 16.213333-41.728 16.213333-67.072 0-25.344-5.376-47.786667-16.213333-67.072a112.64 112.64 0 0 0-45.738667-45.056C319.146667 389.290667 296.618667 384 271.36 384H167.850667V640z m101.546666-215.808c17.322667 0 32.597333 3.669333 45.824 10.837333a73.984 73.984 0 0 1 30.464 30.72c7.082667 13.312 10.666667 28.672 10.666667 46.250667 0 17.578667-3.584 32.938667-10.666667 46.250667a73.984 73.984 0 0 1-30.464 30.72 94.293333 94.293333 0 0 1-45.909333 10.837333h-57.514667V424.106667h57.514667z m328.192 19.029333H479.146667L455.850667 384H410.453333l106.666667 256h43.264L667.306667 384h-45.994667l-23.722667 59.221333z m-14.506666 37.290667l-44.714667 111.957333-44.373333-111.957333h89.088zM733.696 599.893333h-78.506667V640h200.96v-40.192h-78.506666V384h-43.946667V599.808z"  horiz-adv-x="1024" />

    
    <glyph glyph-name="xiangqing" unicode="&#58943;" d="M1023.731107-25.218631c10.783172-10.783172 13.922576-26.889681 3.139404-37.672852-10.783172-10.783172-28.254639-8.735734-35.352423 0L989.061163-59.752079l-99.232478 98.82299a241.188154 241.188154 0 0 0-149.121708-50.435214c-134.92614 0-239.754947 104.351072-239.754947 238.799477 0 134.448405 104.828807 238.799476 239.754947 238.799476 134.994388 0 239.823195-104.419319 239.823195-238.867724a238.389989 238.389989 0 0 0-55.417312-154.445046L1023.731107-25.218631z m-283.02413 61.354882c102.576626 0 192.117898 89.200033 192.117898 191.367171 0 102.167138-89.541273 191.298923-192.117898 191.298923S548.589079 329.67056 548.589079 227.57167c0-102.167138 89.541273-191.367171 192.117898-191.367172zM618.133711 245.862113c13.103601 0 22.248822-10.646676 22.248822-23.750277 0-13.103601-9.145221-23.750277-22.248822-23.750277-13.171849 0-25.456475 10.646676-25.456475 23.750277 0 13.103601 12.284626 23.750277 25.456475 23.750277z m122.573266 105.920773c32.349515 0 65.449756-6.005817 87.0161-27.503912 10.783172-10.783172 15.560526-26.889681 4.777354-37.672852-10.851419-10.783172-27.026177-7.575519-37.809348 3.139404-16.243005 16.106509-32.417763 18.426939-53.984106 18.426939-21.634591 0-43.200934-7.643767-59.375691-29.141863-5.459834-5.459834-16.243005-13.922576-21.634591-13.922576-5.391586 0-16.174757 5.323338-21.566343 10.714924-10.783172 10.783172-10.783172 22.180574 0 32.963746 32.349515 32.213019 64.835525 42.99619 102.576625 42.99619z m-329.29622-373.247881c20.269633 0 33.373233-10.783172 33.373234-30.029085 0-19.314162-13.103601-30.165581-33.441482-30.165581H141.490229C61.708409-81.659661 0.012288-22.28397 0.012288 55.928148V754.786861A139.362255 139.362255 0 0 0 41.097537 854.97481c26.616689 26.480193 62.788088 41.221744 100.324444 40.812256h593.89341C813.868749 895.718819 873.58568 834.295689 873.58568 754.923357v-161.269838c0-20.201385-10.919667-33.236738-30.302077-33.236737-19.314162 0-30.302077 12.967105-30.302077 33.236737V754.923357c0 40.06153-38.628323 80.532547-77.666135 80.532547H141.421981c-39.583794 0-80.873787-41.085249-80.873787-80.532547v-698.995209c0-38.901315 40.607513-77.393143 80.873787-77.393143h269.988776zM598.887797 714.520588c19.109418 0 30.711565-9.418213 30.711564-26.889681s-11.602147-26.889681-30.711564-26.889681H236.764327c-19.245914 0-30.779812 9.418213-30.779813 26.889681s11.602147 26.889681 30.711565 26.889681h362.191718z m0-150.145427c19.109418 0 30.711565-9.554709 30.711564-26.957929 0-17.471468-11.602147-26.889681-30.711564-26.889681H236.764327c-19.245914 0-30.779812 9.418213-30.779813 26.889681s11.602147 26.889681 30.711565 26.889681h362.191718z"  horiz-adv-x="1091" />

    
    <glyph glyph-name="wenjianxiangqing" unicode="&#58950;" d="M1119.153231 713.019077c69.710769 0 126.345846-54.587077 126.424615-121.856v-583.995077c0-67.190154-56.635077-121.856-126.267077-121.856H126.345846C56.635077-114.688 0-60.022154 0 7.168V774.144C0 841.255385 56.635077 896 126.345846 896h384c50.176 0 95.310769-28.356923 115.318154-72.467692l46.08-79.556923 0.630154-1.575385a48.994462 48.994462 0 0 1 45.371077-29.380923h401.408zM126.345846 821.956923a48.521846 48.521846 0 0 1-49.230769-47.812923v-256.315077l6.301538-6.301538h1078.665847l6.301538 6.301538v73.255385a48.521846 48.521846 0 0 1-49.230769 47.734154H717.902769c-50.254769 0-95.389538 28.435692-115.554461 72.704l-46.001231 79.478153-0.630154 1.575385A48.994462 48.994462 0 0 1 510.345846 821.956923H126.345846z m992.807385-862.523077a48.600615 48.600615 0 0 1 49.073231 47.734154V431.261538l-6.301539 6.301539H83.495385l-6.301539-6.301539v-424.014769c0-26.387692 22.055385-47.734154 49.230769-47.734154h992.807385z"  horiz-adv-x="1260" />

    
    <glyph glyph-name="yonghu" unicode="&#58951;" d="M512.511898 343.560088a276.219956 276.219956 0 1 1-276.424715 276.117576 276.936613 276.936613 0 0 1 276.424715-276.117576z m0 470.331534a194.316337 194.316337 0 1 0 0-388.530294 194.316337 194.316337 0 0 0 0 388.530294zM822.107578 209.64767C726.587483 249.780444 605.062987 275.784843 511.89762 275.784843c-92.653469 0-214.689862-26.004399-310.209958-66.137173C69.618076 154.362727 0 78.60188 0-8.830234v-77.910818c0-22.625875 18.121176-41.258948 41.258948-41.258948h941.277345c22.523495 0 41.258948 18.018796 41.258948 41.258948v77.808439c-0.614277 88.14877-70.027594 163.295341-201.687663 218.580283z m119.169767-255.232153H81.903619V-8.215957C81.903619 110.85143 360.990202 194.495501 511.89762 194.495501c150.907419 0 429.379724-83.541692 429.379725-202.711458v-37.266147z"  horiz-adv-x="1024" />

    
    <glyph glyph-name="zuidahua" unicode="&#58952;" d="M896 835.2c36.992 0 67.2-30.208 67.2-67.2v-768c0-36.992-30.208-67.2-67.2-67.2H128c-36.992 0-67.2 30.208-67.2 67.2V768C60.8 804.992 91.008 835.2 128 835.2h768z m-3.2-803.2v704a28.864 28.864 0 0 1-28.8 28.8h-704a28.864 28.864 0 0 1-28.8-28.8v-704c0-15.872 12.928-28.8 28.8-28.8h704c15.808 0 28.8 12.992 28.8 28.8z"  horiz-adv-x="1024" />

    
    <glyph glyph-name="zuixiaohua" unicode="&#58953;" d="M85.504 896h6996.992c47.104 0 85.504-38.4 85.504-85.504v-392.192a85.504 85.504 0 0 0-85.504-85.504H85.504A85.504 85.504 0 0 0 0 418.304V810.496C0 857.6 38.4 896 85.504 896z"  horiz-adv-x="7168" />

    
    <glyph glyph-name="tuichuquanping" unicode="&#58954;" d="M959.195109 895.999269H294.107584a63.926811 63.926811 0 0 1-63.926811-63.999955v-127.999908H64.366034a63.926811 63.926811 0 0 1-63.926811-63.926812v-703.926354c0-35.401118 28.598837-63.999954 63.926811-63.999954h703.048641a63.926811 63.926811 0 0 1 63.926811 63.999954v166.838738h127.999909a63.926811 63.926811 0 0 1 63.853668 63.999954V831.999314A63.926811 63.926811 0 0 1 959.195109 895.999269zM754.834112 166.984932v-218.25813H77.019739V625.956033h677.668088v-458.971101h0.073142z m190.463864 11.483421l-113.810204 1.243427V639.926309a63.926811 63.926811 0 0 1-63.926812 63.999954H306.834432V819.199323h640.9504l-2.559999-640.73097z"  horiz-adv-x="1024" />

    
    <glyph glyph-name="jixu" unicode="&#58955;" d="M143.168 883.2c11.264 0 22.464-3.008 32.832-9.152l736.768-430.784c44.288-25.984 44.288-90.88 0-116.736L176.064-104.57600000000002a64.384 64.384 0 0 0-32.896-9.152c-36.032 0-66.368 29.44-66.368 67.456V815.808C76.8 853.696 107.136 883.2 143.168 883.2z m6.592-79.552v-837.888L865.92 384.704 149.76 803.648z"  horiz-adv-x="1024" />

    
    <glyph glyph-name="zanting" unicode="&#58949;" d="M745.6 896c22.912 0 41.6-19.392 41.6-43.52v-905.152c0-24.064-18.688-43.52-41.6-43.52-22.912 0-41.6 19.456-41.6 43.52V852.48C704 876.608 722.688 896 745.6 896z m-512 0c22.912 0 41.6-19.392 41.6-43.52v-905.152c0-24.064-18.688-43.52-41.6-43.52-22.912 0-41.6 19.456-41.6 43.52V852.48C192 876.608 210.688 896 233.6 896z"  horiz-adv-x="1024" />

    


  </font>
</defs>
</svg>
